<svg width="1080" height="700" viewBox="0 0 1080 700" fill="none" xmlns="http://www.w3.org/2000/svg">
<g clip-path="url(#clip0_2_2)">
<g clip-path="url(#clip1_2_2)">
<path d="M926.992 418.952C926.992 456.753 873.453 568.23 842.755 629.041C840.673 633.167 837.63 636.604 833.941 638.997C830.252 641.39 826.05 642.651 821.771 642.651C817.491 642.651 813.29 641.39 809.601 638.997C805.911 636.604 802.868 633.167 800.786 629.041C770.089 568.23 716.55 456.753 716.55 418.952C716.55 365.959 763.659 323 821.771 323C879.883 323 926.992 365.959 926.992 418.952Z" fill="#6C63FF"/>
<path d="M822.265 481.103C853.913 481.103 879.568 452.789 879.568 417.862C879.568 382.935 853.913 354.621 822.265 354.621C790.617 354.621 764.961 382.935 764.961 417.862C764.961 452.789 790.617 481.103 822.265 481.103Z" fill="white"/>
<path d="M583.141 475.083C602.097 475.083 617.464 458.124 617.464 437.204C617.464 416.284 602.097 399.325 583.141 399.325C564.186 399.325 548.819 416.284 548.819 437.204C548.819 458.124 564.186 475.083 583.141 475.083Z" fill="#FF6584"/>
<path opacity="0.4" d="M576.153 470.889C577.9 459.01 570.589 447.816 559.825 445.888C549.06 443.96 538.918 452.028 537.171 463.908C535.424 475.788 542.734 486.981 553.499 488.909C564.264 490.837 574.406 482.769 576.153 470.889Z" fill="#6C63FF"/>
<path d="M1018.64 579.813C863.136 515.482 673.482 578.2 563.983 706.492C563.36 707.211 562.738 707.942 562.135 708.673H560.465C561.038 707.942 561.631 707.211 562.214 706.492C673.985 568.441 861.121 513.421 1018.64 579.813Z" fill="#3F3D56"/>
<path d="M1061.13 601.152C1047.38 593.062 1033.19 585.935 1018.64 579.813C1033.23 585.834 1047.43 592.964 1061.13 601.152Z" fill="#3F3D56"/>
<path opacity="0.4" d="M976.024 536.968C987.985 536.968 997.681 526.267 997.681 513.067C997.681 499.867 987.985 489.166 976.024 489.166C964.064 489.166 954.367 499.867 954.367 513.067C954.367 526.267 964.064 536.968 976.024 536.968Z" fill="#6C63FF"/>
<path d="M978.436 696.909C980.109 703.736 985.842 707.965 985.842 707.965C985.842 707.965 988.861 701.124 987.187 694.296C985.514 687.468 979.781 683.24 979.781 683.24C979.781 683.24 976.762 690.081 978.436 696.909Z" fill="#3F3D56"/>
<path d="M980.895 695.441C985.488 700.375 986.049 707.959 986.049 707.959C986.049 707.959 979.164 707.544 974.571 702.611C969.979 697.677 969.418 690.093 969.418 690.093C969.418 690.093 976.303 690.508 980.895 695.441Z" fill="#6C63FF"/>
<path d="M517.32 601.975V612.508L516.845 613.075V601.866C517.003 601.899 517.162 601.943 517.32 601.975Z" fill="#3F3D56"/>
<path d="M547.73 706.487C547.592 706.738 547.444 706.988 547.295 707.239H516.845V602.499L517.32 601.975L521.361 607.046V599.631H534.204V623.161L547.177 639.418L547.295 639.571C547.453 640.116 547.602 640.662 547.75 641.207C547.751 641.215 547.754 641.223 547.76 641.229C549.705 648.1 551.302 655.085 552.542 662.153C555.367 678.824 554.942 694.111 547.73 706.487Z" fill="#CCCCCC"/>
<path d="M527.537 659.871H519.362V667.39H527.537V659.871Z" fill="#3F3D56"/>
<path d="M527.537 673.404H519.362V680.923H527.537V673.404Z" fill="#3F3D56"/>
<path d="M779.362 645.586L775.275 638.068L813.425 601.979C841.629 586.997 875.627 591.32 911.527 601.979V612.504L876.101 654.609L835.225 663.63L779.362 645.586Z" fill="#3F3D56"/>
<path d="M928.413 623.157C935.188 614.841 936.129 606.932 928.413 599.63H915.57V607.049L911.527 601.979L878.826 638.068L873.375 644.082L866.563 674.157L878.826 707.237H941.501V639.571L928.413 623.157Z" fill="#CCCCCC"/>
<path d="M775.275 638.068H878.826V707.237H775.275C762.747 692.279 769.255 665.015 775.275 638.068Z" fill="#F2F2F2"/>
<path d="M864.519 659.871H842.719V680.923H864.519V659.871Z" fill="#3F3D56"/>
<path d="M833.863 659.119H814.788V707.237H833.863V659.119Z" fill="#CCCCCC"/>
<path d="M792.988 666.638V659.12H784.813V666.638H792.306H792.988Z" fill="#3F3D56"/>
<path d="M792.306 672.652H784.813V680.172H792.988V672.652H792.306Z" fill="#3F3D56"/>
<path d="M806.613 659.119H798.438V666.638H806.613V659.119Z" fill="#3F3D56"/>
<path d="M806.613 672.652H798.438V680.171H806.613V672.652Z" fill="#3F3D56"/>
<path d="M908.12 667.39V659.871H899.945V667.39H907.439H908.12Z" fill="#3F3D56"/>
<path d="M907.439 673.405H899.945V680.923H908.12V673.405H907.439Z" fill="#3F3D56"/>
<path d="M921.745 659.871H913.57V667.39H921.745V659.871Z" fill="#3F3D56"/>
<path d="M921.745 673.404H913.57V680.923H921.745V673.404Z" fill="#3F3D56"/>
<path d="M594.982 519.276L588.169 513.261L626.32 475.668H723.058V508.75L660.383 555.365L594.982 519.276Z" fill="#3F3D56"/>
<path d="M740.695 496.756V476.419H727.851V481.4L723.058 475.668L691.72 513.26L679.458 522.283L660.444 675.592L689.118 707.237H755.758C765.969 650.552 774.066 592.319 755.758 514.764L740.695 496.756Z" fill="#CCCCCC"/>
<path d="M588.169 513.261H691.72V707.238H588.169C576.838 631.879 571.303 561.995 588.169 513.261Z" fill="#F2F2F2"/>
<path d="M647.438 659.871H628.363V707.237H647.438V659.871Z" fill="#CCCCCC"/>
<path d="M607.925 673.405V665.887H599.751V673.405H607.245H607.925Z" fill="#3F3D56"/>
<path d="M607.245 679.419H599.751V686.938H607.925V679.419H607.245Z" fill="#3F3D56"/>
<path d="M621.55 665.886H613.375V673.404H621.55V665.886Z" fill="#3F3D56"/>
<path d="M663.107 679.419H655.614V686.938H663.788V679.419H663.107Z" fill="#3F3D56"/>
<path d="M677.413 665.886H669.238V673.404H677.413V665.886Z" fill="#3F3D56"/>
<path d="M677.413 679.419H669.238V686.938H677.413V679.419Z" fill="#3F3D56"/>
<path d="M721.014 523.035V515.517H712.839V523.035H720.333H721.014Z" fill="#3F3D56"/>
<path d="M720.333 529.05H712.839V536.568H721.014V529.05H720.333Z" fill="#3F3D56"/>
<path d="M734.639 515.516H726.464V523.035H734.639V515.516Z" fill="#3F3D56"/>
<path d="M734.639 529.05H726.464V536.568H734.639V529.05Z" fill="#3F3D56"/>
<path d="M721.014 565.139V557.62H712.839V565.139H720.333H721.014Z" fill="#3F3D56"/>
<path d="M720.333 571.154H712.839V578.672H721.014V571.154H720.333Z" fill="#3F3D56"/>
<path d="M734.639 557.62H726.464V565.138H734.639V557.62Z" fill="#3F3D56"/>
<path d="M734.639 571.153H726.464V578.672H734.639V571.153Z" fill="#3F3D56"/>
<path d="M721.014 607.243V599.723H712.839V607.243H720.333H721.014Z" fill="#3F3D56"/>
<path d="M720.333 613.257H712.839V620.775H721.014V613.257H720.333Z" fill="#3F3D56"/>
<path d="M734.639 599.723H726.464V607.242H734.639V599.723Z" fill="#3F3D56"/>
<path d="M734.639 613.257H726.464V620.775H734.639V613.257Z" fill="#3F3D56"/>
<path d="M721.014 649.346V641.827H712.839V649.346H720.333H721.014Z" fill="#3F3D56"/>
<path d="M720.333 655.36H712.839V662.878H721.014V655.36H720.333Z" fill="#3F3D56"/>
<path d="M734.639 641.827H726.464V649.345H734.639V641.827Z" fill="#3F3D56"/>
<path d="M734.639 655.36H726.464V662.878H734.639V655.36Z" fill="#3F3D56"/>
<path d="M599.75 523.035H678.776V541.079C653.446 533.364 627.031 533.918 599.75 541.079V523.035Z" fill="#3F3D56"/>
<path d="M599.75 559.124C624.415 567.143 650.757 567.143 678.776 559.124V577.168H599.75V559.124Z" fill="#3F3D56"/>
<path d="M599.75 595.212H678.776V613.257C651.844 603.766 625.475 603.318 599.75 613.257V595.212Z" fill="#3F3D56"/>
<path d="M599.75 631.301C625.523 642.263 651.889 641.807 678.776 631.301V649.345H599.75V631.301Z" fill="#3F3D56"/>
<path d="M1024.47 599.952H1080V629.479L1075.04 631.192L1058.54 636.875L1032.66 630.257L1006.8 623.645L993.146 620.154L986.328 617.37C992 608.783 1002.31 602.029 1024.47 599.952Z" fill="#3F3D56"/>
<path d="M1080 617.37V707.239H986.329C986.299 707.184 986.279 707.133 986.25 707.077V707.072C986.227 707.01 986.201 706.949 986.17 706.891C984.708 703.642 983.398 700.403 982.238 697.171C972.408 669.827 973.475 643.204 986.329 617.37H1080Z" fill="#F2F2F2"/>
<path d="M1045.6 659.871H1026.52V707.237H1045.6V659.871Z" fill="#CCCCCC"/>
<path d="M1006.09 673.405V665.887H997.911V673.405H1005.4H1006.09Z" fill="#3F3D56"/>
<path d="M1005.4 679.419H997.911V686.938H1006.09V679.419H1005.4Z" fill="#3F3D56"/>
<path d="M1019.71 665.886H1011.54V673.404H1019.71V665.886Z" fill="#3F3D56"/>
<path d="M1019.71 679.419H1011.54V686.938H1019.71V679.419Z" fill="#3F3D56"/>
<path d="M1061.95 673.405V665.887H1053.77V673.405H1061.27H1061.95Z" fill="#3F3D56"/>
<path d="M1061.27 679.419H1053.77V686.938H1061.95V679.419H1061.27Z" fill="#3F3D56"/>
<path d="M1075.57 665.886H1067.4V673.404H1075.57V665.886Z" fill="#3F3D56"/>
<path d="M1075.57 679.419H1067.4V686.938H1075.57V679.419Z" fill="#3F3D56"/>
<path d="M1006.8 565.061H1018.55C1030.13 565.061 1041.24 570.139 1049.43 579.177C1057.62 588.215 1062.22 600.474 1062.22 613.257H1006.8V565.061Z" fill="#3F3D56"/>
<path d="M651.126 434.217H662.869C674.451 434.217 685.559 439.295 693.749 448.333C701.939 457.372 706.54 469.631 706.54 482.413H651.126V434.217Z" fill="#3F3D56"/>
<path d="M838.844 555.247H850.587C862.169 555.247 873.277 560.325 881.467 569.364C889.657 578.402 894.258 590.661 894.258 603.443H838.844V555.247Z" fill="#3F3D56"/>
<path d="M1062.22 631.301H1006.8V649.345H1062.22V631.301Z" fill="#3F3D56"/>
<path d="M568.785 620.348H566.809V706.487H568.785V620.348Z" fill="#3F3D56"/>
<path d="M587.021 631.325C587.147 661.446 567.945 685.962 567.945 685.962C567.945 685.962 543.355 661.121 548.414 631.522C553.501 601.754 569.358 577.012 567.49 576.885C567.49 576.885 586.895 601.205 587.021 631.325Z" fill="#6C63FF"/>
<path d="M766.383 620.348H764.407V706.487H766.383V620.348Z" fill="#3F3D56"/>
<path d="M784.619 631.325C786.4 661.382 765.543 685.962 765.543 685.962C765.543 685.962 746.137 661.642 746.012 631.522C745.886 601.401 765.088 576.885 765.088 576.885C763.216 585.142 783.178 607.006 784.619 631.325Z" fill="#6C63FF"/>
<path d="M638.006 480.327L723.836 475.693L759.842 508.861L753.476 515.204L696.46 513.787L638.006 480.327Z" fill="#3F3D56"/>
<path d="M552.364 634.25L547.74 638.862L547.177 639.419L546.001 640.596L516.845 639.876V601.866C515.897 601.637 514.948 601.419 514 601.212L516.361 601.081L516.845 601.528L521.361 605.683L534.204 617.524L548.55 630.739L552.364 634.25Z" fill="#3F3D56"/>
<path d="M825.724 605.719L911.554 601.085L947.56 634.253L941.194 640.596L884.178 639.179L825.724 605.719Z" fill="#3F3D56"/>
</g>
<g clip-path="url(#clip2_2_2)">
<path d="M371.387 408.919C382.029 408.919 390.656 400.291 390.656 389.647C390.656 379.003 382.029 370.374 371.387 370.374C360.745 370.374 352.118 379.003 352.118 389.647C352.118 400.291 360.745 408.919 371.387 408.919Z" fill="#F2F2F2"/>
<path d="M445.548 524.792L115.79 323L8.00003 499.214L337.758 701.006L445.548 524.792Z" fill="#F2F2F2"/>
<path d="M416.247 580.686C413.236 573.76 408.6 567.677 399.327 562.558C394.534 559.848 389.386 557.821 384.032 556.535C387.634 554.861 390.947 552.625 393.847 549.91C398.11 546.099 401.341 541.272 403.241 535.878C404.989 530.396 405.704 524.637 405.348 518.894C404.686 508.775 402.699 498.958 397.4 491.912C392.101 484.865 384.634 479.445 374.759 475.651C367.172 472.76 359.404 470.953 347.361 470.29V431.805L323.275 446.862V470.351H304.006V445.658L279.318 431.805V470.351H226.871L243.731 499.26C248.94 499.266 252.468 499.747 254.269 500.645C255.949 501.364 257.331 502.64 258.183 504.258C258.965 505.764 259.327 509.317 259.327 514.798V619.111C259.327 624.532 258.965 628.025 258.183 629.591C257.4 631.157 256.978 632.542 255.112 633.385C253.245 634.228 253.185 634.168 248.006 634.168H247.946L226.871 663.077H279.258V701.622H303.946V663.077H323.215V701.622H347.301V662.836C362.957 662.053 374.097 660.005 383.069 656.633C394.69 652.296 403.602 645.972 409.985 637.661C416.368 629.35 418.957 616.642 419.499 606.825C419.92 598.092 418.957 586.83 416.247 580.686ZM303.946 502.873H303.952V502.072H320.788C330.26 502.072 361.825 498.916 362.349 524.699C362.879 550.483 320.788 549.429 320.788 549.429H303.952V547.441H303.946V502.873ZM303.946 576.35H323.215C327.129 576.35 340.593 576.946 345.495 577.169C347.493 577.242 349.471 577.595 351.371 578.217C352.064 578.452 352.72 578.717 353.431 579.012C356.401 579.972 359.203 581.39 361.735 583.216C363.385 584.306 364.837 585.671 366.028 587.251C366.544 587.964 367.018 588.706 367.449 589.474C368.589 591.403 369.435 593.492 369.96 595.671C370.534 597.775 370.831 599.946 370.845 602.127C370.845 606.819 369.978 610.704 367.84 613.992C364.944 618.846 360.193 622.285 354.846 624.712C341.021 631 323.215 630.554 323.215 630.554H303.946V576.35Z" fill="#3F3D56"/>
<path opacity="0.3" d="M376.601 390.457C376.419 390.006 376.083 389.634 375.653 389.405C375.385 389.249 375.096 389.131 374.795 389.056C374.998 388.958 375.184 388.828 375.346 388.671C375.586 388.448 375.767 388.168 375.872 387.857C375.97 387.538 376.01 387.204 375.99 386.871C375.989 386.318 375.834 385.776 375.545 385.305C375.222 384.875 374.781 384.547 374.276 384.362C373.785 384.171 373.266 384.066 372.74 384.051V381.817L371.389 382.691V384.054H370.309V382.621L368.925 381.817V384.054H365.985L366.93 385.732C367.131 385.718 367.332 385.745 367.521 385.812C367.616 385.855 367.693 385.929 367.74 386.022C367.798 386.22 367.82 386.428 367.804 386.634V392.687C367.819 392.892 367.797 393.098 367.74 393.296C367.696 393.387 367.673 393.467 367.568 393.516C367.463 393.565 367.46 393.561 367.17 393.561H367.166L365.985 395.239H368.922V397.476H370.306V395.239H371.386V397.476H372.736V395.225C373.42 395.213 374.097 395.091 374.741 394.865C375.34 394.651 375.864 394.269 376.25 393.764C376.587 393.227 376.771 392.608 376.784 391.974C376.819 391.462 376.757 390.947 376.601 390.457ZM370.306 385.942L370.306 385.895H371.25C371.781 385.895 373.55 385.712 373.58 387.208C373.61 388.705 371.25 388.643 371.25 388.643H370.306V388.528L370.306 385.942ZM370.306 390.206H371.386C371.605 390.206 372.36 390.24 372.635 390.253C372.747 390.258 372.858 390.278 372.964 390.314C373.003 390.328 373.04 390.343 373.08 390.36C373.247 390.416 373.404 390.499 373.545 390.604C373.638 390.668 373.72 390.747 373.786 390.839C373.888 390.987 373.963 391.152 374.007 391.327C374.039 391.449 374.055 391.575 374.056 391.702C374.067 391.943 374.009 392.182 373.888 392.39C373.714 392.668 373.46 392.885 373.159 393.013C372.597 393.243 371.994 393.358 371.386 393.352H370.306V390.206Z" fill="#6C63FF"/>
<path d="M488.595 609.555C492.496 609.555 495.658 606.392 495.658 602.491C495.658 598.59 492.496 595.427 488.595 595.427C484.694 595.427 481.532 598.59 481.532 602.491C481.532 606.392 484.694 609.555 488.595 609.555Z" fill="#FF6584"/>
<path d="M544.273 679.389V598.956" stroke="#3F3D56" stroke-width="2" stroke-miterlimit="10"/>
<path d="M544.273 610.331C550.554 610.331 555.645 605.238 555.645 598.956C555.645 592.675 550.554 587.582 544.273 587.582C537.992 587.582 532.901 592.675 532.901 598.956C532.901 605.238 537.992 610.331 544.273 610.331Z" fill="#3F3D56"/>
<path d="M521.876 643.991C505.45 669.187 509.951 701.233 509.951 701.233C509.951 701.233 541.084 692.428 557.51 667.232C573.937 642.037 569.436 609.991 569.436 609.991C569.436 609.991 538.303 618.796 521.876 643.991Z" fill="#3F3D56"/>
<path d="M509.863 700.94C509.863 700.94 509.463 700.876 508.727 700.727C508.14 700.608 507.332 700.438 506.345 700.204C497.522 698.123 474.065 691.089 458.729 672.597C439.534 649.442 440.343 617.092 440.343 617.092C440.343 617.092 469.692 621.862 489.031 642.656C489.869 643.549 490.684 644.475 491.477 645.434C508.179 665.581 509.736 692.689 509.859 699.391C509.876 700.395 509.863 700.94 509.863 700.94Z" fill="#6C63FF"/>
<path d="M498.025 643.991C514.451 669.187 509.951 701.233 509.951 701.233C509.951 701.233 478.817 692.428 462.391 667.232C445.964 642.037 450.465 609.991 450.465 609.991C450.465 609.991 481.599 618.796 498.025 643.991Z" stroke="#3F3D56" stroke-width="2" stroke-miterlimit="10"/>
<path opacity="0.1" d="M509.859 699.391C509.425 699.914 509.042 700.361 508.727 700.727C508.03 701.523 507.634 701.94 507.634 701.94C507.634 701.94 507.153 701.335 506.345 700.204C501.908 694.017 487.636 672.019 488.737 646.608C488.797 645.277 488.895 643.959 489.031 642.656C489.869 643.549 490.684 644.475 491.477 645.434C508.179 665.581 509.736 692.689 509.859 699.391Z" fill="black"/>
<path d="M534.215 648.446C532.917 678.497 510.613 701.94 510.613 701.94C510.613 701.94 490.415 676.66 491.714 646.609C493.012 616.558 515.315 593.115 515.315 593.115C515.315 593.115 535.513 618.395 534.215 648.446Z" fill="#6C63FF"/>
<path d="M510.614 701.089L515.517 594.341" stroke="#3F3D56" stroke-width="2" stroke-miterlimit="10"/>
<path d="M150.803 571.023C165.014 571.023 176.533 559.501 176.533 545.288C176.533 531.075 165.014 519.553 150.803 519.553C136.593 519.553 125.074 531.075 125.074 545.288C125.074 559.501 136.593 571.023 150.803 571.023Z" fill="#6C63FF"/>
<path d="M107.069 631.59C121.28 631.59 132.799 620.068 132.799 605.855C132.799 591.642 121.28 580.12 107.069 580.12C92.8593 580.12 81.3397 591.642 81.3397 605.855C81.3397 620.068 92.8593 631.59 107.069 631.59Z" fill="#6C63FF"/>
<path d="M53.2429 679.959C67.4531 679.959 78.9727 668.437 78.9727 654.224C78.9727 640.011 67.4531 628.489 53.2429 628.489C39.0328 628.489 27.5132 640.011 27.5132 654.224C27.5132 668.437 39.0328 679.959 53.2429 679.959Z" fill="#6C63FF"/>
<path d="M53.2201 700.765V654.083" stroke="#3F3D56" stroke-width="2" stroke-miterlimit="10"/>
<path d="M53.2201 660.684C56.8653 660.684 59.8203 657.728 59.8203 654.082C59.8203 650.437 56.8653 647.481 53.2201 647.481C49.5749 647.481 46.6199 650.437 46.6199 654.082C46.6199 657.728 49.5749 660.684 53.2201 660.684Z" fill="#3F3D56"/>
<path d="M53.2201 682.854C53.2201 682.854 52.2772 662.57 32.9481 664.928Z" fill="#3F3D56"/>
<path d="M150.82 701.092V545.383" stroke="#3F3D56" stroke-width="2" stroke-miterlimit="10"/>
<path d="M150.82 551.91C154.465 551.91 157.42 548.955 157.42 545.309C157.42 541.663 154.465 538.707 150.82 538.707C147.174 538.707 144.219 541.663 144.219 545.309C144.219 548.955 147.174 551.91 150.82 551.91Z" fill="#3F3D56"/>
<path d="M130.547 664.567C134.193 664.567 137.148 661.611 137.148 657.965C137.148 654.32 134.193 651.364 130.547 651.364C126.902 651.364 123.947 654.32 123.947 657.965C123.947 661.611 126.902 664.567 130.547 664.567Z" fill="#3F3D56"/>
<path d="M150.819 579.03C150.819 579.03 149.877 558.746 130.547 561.104Z" fill="#3F3D56"/>
<path d="M150.819 636.531C150.819 636.531 149.877 616.248 130.547 618.605Z" fill="#3F3D56"/>
<path d="M150.819 699.277C150.819 699.277 155.062 659.852 130.547 657.965" stroke="#3F3D56" stroke-width="2" stroke-miterlimit="10"/>
<path d="M171.094 664.567C174.74 664.567 177.695 661.611 177.695 657.965C177.695 654.32 174.74 651.364 171.094 651.364C167.449 651.364 164.494 654.32 164.494 657.965C164.494 661.611 167.449 664.567 171.094 664.567Z" fill="#3F3D56"/>
<path d="M150.822 699.277C150.822 699.277 146.579 659.852 171.094 657.965" stroke="#3F3D56" stroke-width="2" stroke-miterlimit="10"/>
<path d="M171.496 602.642C175.142 602.642 178.097 599.687 178.097 596.041C178.097 592.395 175.142 589.439 171.496 589.439C167.851 589.439 164.896 592.395 164.896 596.041C164.896 599.687 167.851 602.642 171.496 602.642Z" fill="#3F3D56"/>
<path d="M151.224 635.25C151.224 635.25 146.981 597.927 171.496 596.041" stroke="#3F3D56" stroke-width="2" stroke-miterlimit="10"/>
<path d="M107.093 700.872V605.826" stroke="#3F3D56" stroke-width="2" stroke-miterlimit="10"/>
<path d="M107.093 612.427C110.738 612.427 113.693 609.472 113.693 605.826C113.693 602.18 110.738 599.225 107.093 599.225C103.448 599.225 100.493 602.18 100.493 605.826C100.493 609.472 103.448 612.427 107.093 612.427Z" fill="#3F3D56"/>
<path d="M107.093 632.711C107.093 632.711 106.15 612.428 86.8209 614.785Z" fill="#3F3D56"/>
<path d="M107.093 699.058C107.093 699.058 111.336 660.053 86.8209 658.166" stroke="#3F3D56" stroke-width="2" stroke-miterlimit="10"/>
<path d="M86.8208 664.768C90.466 664.768 93.421 661.812 93.421 658.166C93.421 654.521 90.466 651.565 86.8208 651.565C83.1757 651.565 80.2206 654.521 80.2206 658.166C80.2206 661.812 83.1757 664.768 86.8208 664.768Z" fill="#3F3D56"/>
<path d="M469.538 556.475C475.524 556.475 480.376 551.622 480.376 545.634C480.376 539.647 475.524 534.793 469.538 534.793C463.552 534.793 458.699 539.647 458.699 545.634C458.699 551.622 463.552 556.475 469.538 556.475Z" fill="#F2F2F2"/>
<path opacity="0.1" d="M354.846 624.712C341.021 631 323.215 630.554 323.215 630.554H303.946V626.874C311.798 624.682 322.655 623.327 334.656 623.327C341.41 623.303 348.158 623.766 354.846 624.712Z" fill="black"/>
<path opacity="0.1" d="M378.011 635.372C378.011 642.027 358.597 647.418 334.656 647.418C310.714 647.418 291.301 642.027 291.301 635.372C291.301 632.054 296.13 629.049 303.946 626.874V630.554H323.215C323.215 630.554 341.021 631 354.846 624.712C368.617 626.724 378.011 630.741 378.011 635.372Z" fill="black"/>
<path d="M340.193 560.372H321.747V578.855H340.193V560.372Z" fill="#2F2E41"/>
<path d="M328.606 573.443C328.606 573.443 330.133 578.788 327.461 579.17C325.803 579.428 324.232 580.083 322.881 581.079L327.843 587.569H337.004L342.73 581.842C342.73 581.842 335.096 576.115 336.623 572.679C338.149 569.243 328.606 573.443 328.606 573.443Z" fill="#FFB9B9"/>
<path opacity="0.1" d="M328.606 573.443C328.606 573.443 330.133 578.788 327.461 579.17C325.803 579.428 324.232 580.083 322.881 581.079L327.843 587.569H337.004L342.73 581.842C342.73 581.842 335.096 576.115 336.623 572.679C338.149 569.243 328.606 573.443 328.606 573.443Z" fill="black"/>
<path d="M330.897 639.876L339.677 642.93L345.784 643.312L345.402 637.966L332.805 634.24L330.897 639.876Z" fill="#FFB9B9"/>
<path d="M342.158 638.73C342.158 638.73 342.158 644.075 342.921 644.075C343.684 644.075 353.991 642.93 357.045 644.075C360.099 645.221 364.679 641.021 362.389 638.73C360.098 636.439 356.363 633.003 354.032 633.767C351.701 634.53 342.157 636.439 342.157 636.439L342.158 638.73Z" fill="#2F2E41"/>
<path d="M314.101 633.767C314.101 633.767 309.52 642.93 312.574 643.693C315.628 644.457 319.063 643.312 319.445 642.93C319.827 642.548 325.171 641.021 325.934 641.784C326.698 642.548 326.698 638.73 326.698 638.73L314.101 633.767Z" fill="#2F2E41"/>
<path d="M317.918 621.167C317.918 621.167 310.665 631.094 316.009 633.767C321.354 636.439 346.929 636.439 348.838 633.767C350.746 631.094 351.51 622.695 348.838 621.931C346.166 621.167 317.918 621.167 317.918 621.167Z" fill="#2F2E41"/>
<path opacity="0.2" d="M317.918 621.167C317.918 621.167 310.665 631.094 316.009 633.767C321.354 636.439 346.929 636.439 348.838 633.767C350.746 631.094 351.51 622.695 348.838 621.931C346.166 621.167 317.918 621.167 317.918 621.167Z" fill="black"/>
<path d="M331.66 576.115C336.509 576.115 340.44 572.184 340.44 567.334C340.44 562.484 336.509 558.553 331.66 558.553C326.811 558.553 322.881 562.484 322.881 567.334C322.881 572.184 326.811 576.115 331.66 576.115Z" fill="#FFB9B9"/>
<path d="M317.918 581.079L325.553 579.551C325.553 579.551 327.461 585.66 333.569 584.515C339.676 583.369 341.203 579.551 341.203 579.551C341.203 579.551 345.784 581.46 346.166 581.46C346.547 581.46 351.51 583.369 351.51 584.515C351.51 585.66 345.784 597.114 345.784 597.114L346.547 617.731L318.3 616.968L320.208 596.732L317.918 581.079Z" fill="#6C63FF"/>
<path d="M313.719 591.005C313.719 591.005 311.429 611.241 312.956 612.768C314.483 614.295 320.59 618.495 320.59 618.495V613.913L317.536 608.186L320.59 594.823L313.719 591.005Z" fill="#FFB9B9"/>
<path d="M353.227 590.433C353.227 590.433 351.891 611.241 351.891 612.004C351.891 612.768 348.456 615.44 347.311 615.44C346.166 615.44 345.402 613.531 345.402 613.531L348.074 610.477L346.166 594.823L353.227 590.433Z" fill="#FFB9B9"/>
<path d="M349.601 619.64C349.601 619.64 366.779 610.095 367.16 619.64C367.542 629.185 358.381 633.003 358.381 633.003C358.381 633.003 334.714 640.101 333.76 637.507C332.805 634.912 330.897 630.712 332.424 630.331C333.95 629.949 335.859 629.185 336.623 629.949C337.386 630.712 346.929 624.222 346.929 624.222L349.601 619.64Z" fill="#2F2E41"/>
<path opacity="0.2" d="M357.617 618.495C357.617 618.495 354.182 620.022 353.037 621.167C351.891 622.313 346.929 624.222 346.929 624.222" stroke="black" stroke-width="2" stroke-miterlimit="10"/>
<path d="M320.208 581.842L317.918 581.079C317.918 581.079 309.52 589.86 312.192 592.151C314.864 594.442 316.391 595.205 317.155 595.969C317.918 596.732 321.735 597.114 321.735 597.114L320.208 581.842Z" fill="#6C63FF"/>
<path d="M348.074 583.751L351.51 584.515C351.51 584.515 354.182 590.242 354.945 591.005C355.709 591.769 353.8 591.387 352.655 592.914C351.51 594.442 350.365 597.114 348.074 597.114C345.784 597.114 342.73 593.296 342.73 593.296L348.074 583.751Z" fill="#6C63FF"/>
<path d="M318.682 623.076C318.682 623.076 304.176 612.768 299.214 620.404C294.251 628.04 320.59 638.348 324.407 639.875C328.225 641.403 331.66 642.93 331.66 642.93C331.66 642.93 335.096 634.53 335.096 633.003C335.096 631.476 332.424 631.476 331.66 631.476C330.897 631.476 327.461 630.712 326.698 629.567C325.934 628.422 318.682 623.076 318.682 623.076Z" fill="#2F2E41"/>
<path opacity="0.2" d="M310.665 620.404C310.665 620.404 314.483 623.458 317.918 624.222C321.354 624.985 322.499 626.894 322.499 626.894" stroke="black" stroke-width="2" stroke-miterlimit="10"/>
<path d="M316.048 606.048L316.353 622.214C316.363 622.748 316.584 623.256 316.967 623.628C317.35 624 317.865 624.205 318.399 624.199L348.476 623.861C348.989 623.855 349.48 623.655 349.85 623.301C350.221 622.947 350.444 622.466 350.473 621.954L351.386 606.127C351.402 605.852 351.362 605.576 351.267 605.317C351.173 605.058 351.027 604.821 350.838 604.621C350.649 604.421 350.42 604.261 350.167 604.152C349.914 604.043 349.642 603.987 349.366 603.987H318.071C317.802 603.987 317.536 604.04 317.288 604.144C317.04 604.248 316.816 604.401 316.627 604.593C316.439 604.785 316.291 605.012 316.191 605.262C316.092 605.512 316.043 605.779 316.048 606.048Z" fill="#575A89"/>
<path d="M312.569 581.175C313.389 579.367 314.489 577.67 315.014 575.756C315.643 573.461 315.398 571.033 315.323 568.655C315.204 566.552 315.383 564.443 315.855 562.39C316.335 560.327 317.412 558.452 318.952 556.998C322.952 553.426 330.273 553.17 335.158 554.657C337.083 555.243 339.135 556.359 339.612 558.315C339.684 558.61 339.717 558.915 339.797 559.208C340.197 560.664 341.687 561.585 342.224 562.997C342.919 564.822 341.847 566.807 341.707 568.755C341.544 571.03 342.662 573.178 343.763 575.175C344.418 576.362 345.099 577.626 345.034 578.98C344.98 579.72 344.755 580.438 344.377 581.077C343.675 582.236 342.69 583.197 341.515 583.87C340.34 584.544 339.013 584.908 337.659 584.929C336.779 584.999 335.899 584.791 335.143 584.335C333.951 583.514 333.602 581.86 333.85 580.434C334.098 579.008 334.822 577.718 335.389 576.386C335.563 575.978 335.72 575.562 335.865 575.142C337.624 574.16 338.979 572.588 339.691 570.704C340.404 568.82 340.427 566.745 339.758 564.845C339.09 562.944 337.771 561.342 336.035 560.32C334.3 559.298 332.259 558.922 330.273 559.259C328.287 559.596 326.485 560.624 325.183 562.161C323.881 563.698 323.165 565.646 323.16 567.661C323.155 569.675 323.861 571.626 325.155 573.17C326.449 574.714 328.247 575.751 330.231 576.098C330.658 578.253 330.464 580.485 329.67 582.533C328.949 584.2 328.042 585.78 326.969 587.245C326.529 587.996 325.944 588.651 325.247 589.171C324.788 589.443 324.295 589.654 323.781 589.798C321.625 590.491 319.355 591.049 317.111 590.737C314.868 590.425 312.646 589.072 311.882 586.94C311.212 585.071 311.75 582.983 312.569 581.175Z" fill="#2F2E41"/>
<path d="M331.235 567.684C336.381 567.684 340.552 565.32 340.552 562.403C340.552 559.487 336.381 557.122 331.235 557.122C326.089 557.122 321.917 559.487 321.917 562.403C321.917 565.32 326.089 567.684 331.235 567.684Z" fill="#2F2E41"/>
<path opacity="0.3" d="M473.589 546.264C473.447 545.914 473.186 545.624 472.852 545.447C472.644 545.325 472.42 545.234 472.186 545.175C472.344 545.099 472.488 544.998 472.614 544.877C472.8 544.703 472.941 544.485 473.023 544.244C473.099 543.996 473.13 543.736 473.115 543.478C473.113 543.048 472.993 542.627 472.768 542.261C472.517 541.926 472.175 541.672 471.782 541.528C471.401 541.38 470.997 541.298 470.589 541.286V539.55L469.539 540.229V541.289H468.7V540.175L467.625 539.55V541.289H465.34L466.074 542.592C466.23 542.582 466.386 542.603 466.533 542.655C466.607 542.688 466.667 542.745 466.704 542.818C466.749 542.972 466.765 543.133 466.754 543.293V547.997C466.765 548.157 466.748 548.317 466.704 548.47C466.67 548.54 466.651 548.603 466.57 548.641C466.489 548.679 466.486 548.676 466.261 548.676H466.258L465.34 549.98H467.622V551.718H468.697V549.98H469.537V551.718H470.586V549.969C471.117 549.96 471.643 549.865 472.144 549.689C472.609 549.523 473.016 549.226 473.317 548.834C473.578 548.416 473.722 547.936 473.731 547.443C473.759 547.045 473.711 546.645 473.589 546.264ZM468.697 542.755L468.698 542.719H469.431C469.844 542.719 471.219 542.577 471.242 543.74C471.265 544.902 469.431 544.855 469.431 544.855H468.698V544.765L468.697 542.755ZM468.697 546.069H469.537C469.707 546.069 470.294 546.096 470.507 546.106C470.594 546.109 470.681 546.125 470.763 546.153C470.793 546.164 470.822 546.176 470.853 546.189C470.983 546.232 471.105 546.297 471.215 546.379C471.287 546.428 471.35 546.49 471.402 546.56C471.481 546.676 471.539 546.804 471.573 546.94C471.598 547.035 471.611 547.133 471.612 547.231C471.62 547.419 471.575 547.604 471.481 547.766C471.346 547.982 471.148 548.151 470.915 548.25C470.478 548.429 470.009 548.519 469.537 548.513H468.697V546.069Z" fill="#6C63FF"/>
<path d="M46.8278 594.418C52.8138 594.418 57.6665 589.565 57.6665 583.577C57.6665 577.59 52.8138 572.736 46.8278 572.736C40.8417 572.736 35.9891 577.59 35.9891 583.577C35.9891 589.565 40.8417 594.418 46.8278 594.418Z" fill="#F2F2F2"/>
<path opacity="0.3" d="M50.8797 584.207C50.7378 583.857 50.4768 583.567 50.1426 583.39C49.9347 583.268 49.7103 583.177 49.4764 583.118C49.634 583.042 49.7784 582.941 49.9039 582.819C50.0907 582.646 50.2314 582.428 50.3131 582.187C50.3893 581.939 50.4204 581.679 50.4049 581.421C50.4036 580.991 50.2838 580.57 50.0587 580.204C49.8075 579.869 49.465 579.615 49.0724 579.471C48.6912 579.323 48.2876 579.241 47.8789 579.229V577.493L46.8297 578.172V579.232H45.9903V578.118L44.9148 577.493V579.232H42.6301L43.3646 580.535C43.5203 580.525 43.6765 580.546 43.8236 580.598C43.8975 580.631 43.9577 580.688 43.9941 580.761C44.0389 580.915 44.0558 581.076 44.044 581.236V585.94C44.0554 586.099 44.0385 586.259 43.9941 586.413C43.96 586.483 43.9417 586.546 43.8604 586.584C43.779 586.622 43.7764 586.619 43.5508 586.619H43.5482L42.6301 587.923H44.9122V589.661H45.9877V587.923H46.8271V589.661H47.8763V587.912C48.4073 587.903 48.9333 587.808 49.4344 587.632C49.8995 587.466 50.3067 587.169 50.6069 586.777C50.8686 586.359 51.0119 585.879 51.0214 585.386C51.049 584.988 51.0009 584.588 50.8797 584.207ZM45.9877 580.698L45.988 580.662H46.7214C47.134 580.662 48.509 580.52 48.5318 581.683C48.5549 582.845 46.7214 582.798 46.7214 582.798H45.988V582.708L45.9877 580.698ZM45.9877 584.012H46.8271C46.9976 584.012 47.5841 584.039 47.7976 584.049C47.8848 584.052 47.971 584.068 48.0536 584.096C48.0838 584.107 48.1124 584.119 48.1433 584.132C48.2732 584.175 48.3953 584.239 48.5051 584.321C48.5773 584.371 48.6406 584.433 48.6921 584.503C48.7716 584.619 48.8296 584.747 48.8634 584.883C48.8884 584.978 48.9013 585.076 48.9019 585.174C48.9106 585.362 48.8651 585.547 48.771 585.709C48.6363 585.925 48.4387 586.094 48.205 586.193C47.7679 586.372 47.2994 586.461 46.8271 586.456H45.9877L45.9877 584.012Z" fill="#6C63FF"/>
</g>
</g>
<defs>
<clipPath id="clip0_2_2">
<rect width="1080" height="700" fill="white"/>
</clipPath>
<clipPath id="clip1_2_2">
<rect width="566" height="394" fill="white" transform="translate(514 323)"/>
</clipPath>
<clipPath id="clip2_2_2">
<rect width="562" height="379" fill="white" transform="translate(8 323)"/>
</clipPath>
</defs>
</svg>
