<svg width="1080" height="438" viewBox="0 0 1080 438" fill="none" xmlns="http://www.w3.org/2000/svg">
<g clip-path="url(#clip0_1_2)">
<g clip-path="url(#clip1_1_2)">
<path d="M799.475 13.0733C798.859 9.95248 797.179 7.14224 794.721 5.12262C792.264 3.10299 789.181 1.99928 786 2C780.702 2 776.1 5.00667 773.808 9.40667C771.114 9.69786 768.622 10.9745 766.811 12.9914C765.001 15.0083 764 17.6231 764 20.3333C764 26.4017 768.932 31.3333 775 31.3333H798.833C803.893 31.3333 808 27.2267 808 22.1667C808 17.3267 804.242 13.4033 799.475 13.0733Z" fill="#F2F2F2"/>
</g>
<g clip-path="url(#clip2_1_2)">
<path d="M317.475 42.4067C316.859 39.2858 315.179 36.4756 312.721 34.456C310.264 32.4363 307.181 31.3326 304 31.3333C298.702 31.3333 294.1 34.34 291.808 38.74C289.114 39.0312 286.622 40.3079 284.811 42.3248C283.001 44.3416 282 46.9564 282 49.6667C282 55.735 286.932 60.6667 293 60.6667H316.833C321.893 60.6667 326 56.56 326 51.5C326 46.66 322.242 42.7367 317.475 42.4067Z" fill="#F2F2F2"/>
</g>
<g clip-path="url(#clip3_1_2)">
<path d="M330.675 177.463C339.158 177.463 346.035 170.588 346.035 162.106C346.035 153.625 339.158 146.749 330.675 146.749C322.192 146.749 315.315 153.625 315.315 162.106C315.315 170.588 322.192 177.463 330.675 177.463Z" fill="#F2F2F2"/>
<path d="M389.793 269.795L126.925 109L41 249.413L303.868 410.208L389.793 269.795Z" fill="#F2F2F2"/>
<path d="M366.436 314.333C364.036 308.814 360.339 303.967 352.947 299.888C349.127 297.728 345.023 296.113 340.755 295.089C343.627 293.755 346.268 291.973 348.579 289.81C351.978 286.773 354.553 282.926 356.067 278.628C357.461 274.26 358.031 269.671 357.747 265.095C357.219 257.032 355.635 249.21 351.411 243.595C347.187 237.98 341.235 233.661 333.363 230.637C327.315 228.334 321.123 226.894 311.523 226.366V195.7L292.323 207.698V226.414H276.962V206.738L257.282 195.7V226.414H215.474L228.914 249.45C233.066 249.454 235.879 249.838 237.314 250.553C238.654 251.127 239.755 252.143 240.434 253.433C241.058 254.633 241.346 257.464 241.346 261.831V344.951C241.346 349.271 241.058 352.054 240.434 353.302C239.81 354.55 239.474 355.653 237.986 356.325C236.498 356.997 236.45 356.949 232.322 356.949H232.274L215.474 379.985H257.234V410.699H276.914V379.985H292.275V410.699H311.475V379.793C323.955 379.169 332.835 377.537 339.987 374.85C349.251 371.394 356.355 366.355 361.443 359.733C366.532 353.11 368.596 342.984 369.028 335.161C369.364 328.203 368.596 319.228 366.436 314.333ZM276.914 252.329H276.919V251.691H290.34C297.891 251.691 323.053 249.176 323.47 269.721C323.893 290.266 290.34 289.426 290.34 289.426H276.919V287.842H276.914V252.329ZM276.914 310.878H292.275C295.395 310.878 306.128 311.353 310.035 311.531C311.628 311.588 313.205 311.87 314.72 312.366C315.272 312.553 315.795 312.764 316.361 312.999C318.729 313.764 320.962 314.894 322.981 316.349C324.296 317.218 325.454 318.305 326.403 319.564C326.814 320.132 327.192 320.724 327.536 321.335C328.445 322.873 329.119 324.537 329.537 326.273C329.995 327.95 330.232 329.68 330.243 331.418C330.243 335.156 329.552 338.252 327.848 340.872C325.539 344.74 321.752 347.481 317.489 349.415C306.468 354.425 292.275 354.07 292.275 354.07H276.914V310.878Z" fill="#3F3D56"/>
<path opacity="0.3" d="M334.832 162.752C334.686 162.393 334.418 162.096 334.076 161.914C333.862 161.789 333.632 161.695 333.392 161.636C333.554 161.558 333.702 161.454 333.831 161.329C334.022 161.151 334.167 160.928 334.25 160.68C334.329 160.426 334.361 160.16 334.345 159.895C334.343 159.454 334.22 159.022 333.989 158.647C333.732 158.304 333.38 158.043 332.978 157.895C332.587 157.743 332.173 157.66 331.753 157.647V155.867L330.677 156.564V157.65H329.816V156.508L328.713 155.867V157.65H326.369L327.122 158.987C327.282 158.976 327.442 158.998 327.593 159.051C327.669 159.085 327.731 159.144 327.768 159.218C327.814 159.376 327.831 159.541 327.819 159.705V164.529C327.831 164.693 327.814 164.857 327.768 165.014C327.733 165.086 327.714 165.15 327.631 165.189C327.547 165.228 327.545 165.226 327.313 165.226H327.311L326.369 166.563H328.71V168.345H329.813V166.563H330.674V168.345H331.751V166.551C332.295 166.542 332.835 166.445 333.349 166.265C333.826 166.094 334.244 165.789 334.552 165.387C334.82 164.959 334.967 164.466 334.977 163.961C335.005 163.553 334.956 163.143 334.832 162.752ZM329.813 159.154L329.813 159.117H330.566C330.989 159.117 332.4 158.971 332.423 160.163C332.447 161.356 330.566 161.307 330.566 161.307H329.813V161.215L329.813 159.154ZM329.813 162.552H330.674C330.849 162.552 331.451 162.579 331.67 162.59C331.759 162.593 331.848 162.61 331.933 162.638C331.963 162.649 331.993 162.661 332.025 162.675C332.158 162.72 332.283 162.785 332.396 162.869C332.47 162.92 332.535 162.983 332.587 163.056C332.669 163.174 332.729 163.306 332.763 163.445C332.789 163.543 332.802 163.643 332.803 163.744C332.812 163.936 332.765 164.126 332.668 164.293C332.53 164.513 332.328 164.687 332.088 164.788C331.639 164.972 331.159 165.064 330.674 165.059H329.813V162.552Z" fill="#6C63FF"/>
<path d="M424.108 337.337C427.217 337.337 429.738 334.817 429.738 331.708C429.738 328.599 427.217 326.079 424.108 326.079C420.998 326.079 418.477 328.599 418.477 331.708C418.477 334.817 420.998 337.337 424.108 337.337Z" fill="#FF6584"/>
<path d="M468.492 392.983V328.891" stroke="#3F3D56" stroke-width="2" stroke-miterlimit="10"/>
<path d="M468.492 337.955C473.498 337.955 477.557 333.897 477.557 328.891C477.557 323.886 473.498 319.828 468.492 319.828C463.485 319.828 459.426 323.886 459.426 328.891C459.426 333.897 463.485 337.955 468.492 337.955Z" fill="#3F3D56"/>
<path d="M450.638 364.777C437.544 384.853 441.131 410.389 441.131 410.389C441.131 410.389 465.949 403.373 479.044 383.296C492.138 363.219 488.55 337.684 488.55 337.684C488.55 337.684 463.732 344.7 450.638 364.777Z" fill="#3F3D56"/>
<path d="M441.062 410.155C441.062 410.155 440.743 410.104 440.156 409.986C439.688 409.891 439.044 409.755 438.257 409.569C431.224 407.911 412.525 402.306 400.3 387.571C384.999 369.12 385.643 343.342 385.643 343.342C385.643 343.342 409.039 347.143 424.455 363.712C425.123 364.424 425.773 365.162 426.405 365.926C439.719 381.98 440.96 403.581 441.058 408.921C441.072 409.721 441.062 410.155 441.062 410.155Z" fill="#6C63FF"/>
<path d="M431.625 364.777C444.719 384.853 441.131 410.389 441.131 410.389C441.131 410.389 416.313 403.373 403.219 383.296C390.125 363.219 393.712 337.684 393.712 337.684C393.712 337.684 418.53 344.7 431.625 364.777Z" stroke="#3F3D56" stroke-width="2" stroke-miterlimit="10"/>
<path opacity="0.1" d="M441.058 408.921C440.712 409.338 440.407 409.694 440.156 409.986C439.6 410.62 439.285 410.952 439.285 410.952C439.285 410.952 438.902 410.47 438.257 409.568C434.72 404.639 423.343 387.11 424.221 366.862C424.269 365.801 424.347 364.751 424.455 363.712C425.123 364.424 425.773 365.162 426.405 365.926C439.719 381.98 440.96 403.581 441.058 408.921Z" fill="black"/>
<path d="M460.474 368.326C459.439 392.272 441.66 410.952 441.66 410.952C441.66 410.952 425.559 390.808 426.594 366.863C427.629 342.917 445.408 324.237 445.408 324.237C445.408 324.237 461.509 344.381 460.474 368.326Z" fill="#6C63FF"/>
<path d="M441.66 410.274L445.569 325.213" stroke="#3F3D56" stroke-width="2" stroke-miterlimit="10"/>
<path d="M68.5868 410.367H474.682" stroke="#3F3D56" stroke-width="2" stroke-miterlimit="10"/>
<path d="M154.836 306.633C166.164 306.633 175.347 297.452 175.347 286.127C175.347 274.801 166.164 265.62 154.836 265.62C143.508 265.62 134.326 274.801 134.326 286.127C134.326 297.452 143.508 306.633 154.836 306.633Z" fill="#6C63FF"/>
<path d="M119.973 354.895C131.301 354.895 140.484 345.714 140.484 334.388C140.484 323.063 131.301 313.882 119.973 313.882C108.646 313.882 99.4629 323.063 99.4629 334.388C99.4629 345.714 108.646 354.895 119.973 354.895Z" fill="#6C63FF"/>
<path d="M77.0656 393.437C88.3933 393.437 97.5761 384.256 97.5761 372.93C97.5761 361.605 88.3933 352.424 77.0656 352.424C65.7379 352.424 56.555 361.605 56.555 372.93C56.555 384.256 65.7379 393.437 77.0656 393.437Z" fill="#6C63FF"/>
<path d="M77.0473 410.016V372.818" stroke="#3F3D56" stroke-width="2" stroke-miterlimit="10"/>
<path d="M77.0473 378.078C79.9531 378.078 82.3087 375.723 82.3087 372.818C82.3087 369.913 79.9531 367.557 77.0473 367.557C74.1416 367.557 71.786 369.913 71.786 372.818C71.786 375.723 74.1416 378.078 77.0473 378.078Z" fill="#3F3D56"/>
<path d="M77.0473 395.743C77.0473 395.743 76.2957 379.581 60.8875 381.46L77.0473 395.743Z" fill="#3F3D56"/>
<path d="M154.849 410.276V286.202" stroke="#3F3D56" stroke-width="2" stroke-miterlimit="10"/>
<path d="M154.849 291.404C157.755 291.404 160.11 289.048 160.11 286.143C160.11 283.238 157.755 280.883 154.849 280.883C151.943 280.883 149.588 283.238 149.588 286.143C149.588 289.048 151.943 291.404 154.849 291.404Z" fill="#3F3D56"/>
<path d="M138.689 381.172C141.595 381.172 143.95 378.817 143.95 375.912C143.95 373.007 141.595 370.651 138.689 370.651C135.783 370.651 133.428 373.007 133.428 375.912C133.428 378.817 135.783 381.172 138.689 381.172Z" fill="#3F3D56"/>
<path d="M154.849 313.013C154.849 313.013 154.097 296.851 138.689 298.729L154.849 313.013Z" fill="#3F3D56"/>
<path d="M154.849 358.832C154.849 358.832 154.097 342.67 138.689 344.548L154.849 358.832Z" fill="#3F3D56"/>
<path d="M154.849 408.83C154.849 408.83 158.231 377.415 138.689 375.912" stroke="#3F3D56" stroke-width="2" stroke-miterlimit="10"/>
<path d="M171.011 381.172C173.917 381.172 176.273 378.817 176.273 375.912C176.273 373.007 173.917 370.651 171.011 370.651C168.105 370.651 165.75 373.007 165.75 375.912C165.75 378.817 168.105 381.172 171.011 381.172Z" fill="#3F3D56"/>
<path d="M154.851 408.83C154.851 408.83 151.469 377.415 171.011 375.912" stroke="#3F3D56" stroke-width="2" stroke-miterlimit="10"/>
<path d="M171.332 331.829C174.237 331.829 176.593 329.473 176.593 326.568C176.593 323.663 174.237 321.308 171.332 321.308C168.426 321.308 166.07 323.663 166.07 326.568C166.07 329.473 168.426 331.829 171.332 331.829Z" fill="#3F3D56"/>
<path d="M155.172 357.811C155.172 357.811 151.789 328.071 171.332 326.568" stroke="#3F3D56" stroke-width="2" stroke-miterlimit="10"/>
<path d="M119.992 410.101V334.365" stroke="#3F3D56" stroke-width="2" stroke-miterlimit="10"/>
<path d="M119.992 339.626C122.898 339.626 125.254 337.27 125.254 334.365C125.254 331.46 122.898 329.105 119.992 329.105C117.086 329.105 114.731 331.46 114.731 334.365C114.731 337.27 117.086 339.626 119.992 339.626Z" fill="#3F3D56"/>
<path d="M119.992 355.788C119.992 355.788 119.241 339.626 103.832 341.504L119.992 355.788Z" fill="#3F3D56"/>
<path d="M119.992 408.656C119.992 408.656 123.375 377.575 103.832 376.072" stroke="#3F3D56" stroke-width="2" stroke-miterlimit="10"/>
<path d="M103.832 381.332C106.738 381.332 109.094 378.977 109.094 376.072C109.094 373.167 106.738 370.812 103.832 370.812C100.927 370.812 98.5709 373.167 98.5709 376.072C98.5709 378.977 100.927 381.332 103.832 381.332Z" fill="#3F3D56"/>
<path d="M408.916 295.041C413.688 295.041 417.556 291.173 417.556 286.403C417.556 281.632 413.688 277.764 408.916 277.764C404.144 277.764 400.276 281.632 400.276 286.403C400.276 291.173 404.144 295.041 408.916 295.041Z" fill="#F2F2F2"/>
<path opacity="0.1" d="M317.489 349.415C306.468 354.425 292.275 354.07 292.275 354.07H276.914V351.137C283.174 349.391 291.828 348.311 301.395 348.311C306.779 348.292 312.158 348.661 317.489 349.415Z" fill="black"/>
<path opacity="0.1" d="M335.955 357.909C335.955 363.212 320.48 367.507 301.395 367.507C282.31 367.507 266.834 363.212 266.834 357.909C266.834 355.265 270.684 352.87 276.914 351.137V354.07H292.275C292.275 354.07 306.468 354.425 317.489 349.415C328.467 351.017 335.955 354.218 335.955 357.909Z" fill="black"/>
<path d="M305.809 298.146H291.104V312.874H305.809V298.146Z" fill="#2F2E41"/>
<path d="M296.572 308.561C296.572 308.561 297.79 312.82 295.659 313.125C294.338 313.331 293.085 313.852 292.008 314.646L295.964 319.818H303.267L307.831 315.254C307.831 315.254 301.745 310.691 302.962 307.953C304.18 305.215 296.572 308.561 296.572 308.561Z" fill="#FFB9B9"/>
<path opacity="0.1" d="M296.572 308.561C296.572 308.561 297.79 312.82 295.659 313.125C294.338 313.331 293.085 313.852 292.008 314.646L295.964 319.818H303.267L307.831 315.254C307.831 315.254 301.745 310.691 302.962 307.953C304.18 305.215 296.572 308.561 296.572 308.561Z" fill="black"/>
<path d="M298.398 361.497L305.397 363.931L310.265 364.235L309.961 359.976L299.92 357.007L298.398 361.497Z" fill="#FFB9B9"/>
<path d="M307.375 360.584C307.375 360.584 307.375 364.844 307.983 364.844C308.592 364.844 316.808 363.931 319.242 364.844C321.676 365.756 325.328 362.41 323.502 360.584C321.676 358.759 318.698 356.021 316.84 356.629C314.982 357.238 307.375 358.759 307.375 358.759L307.375 360.584Z" fill="#2F2E41"/>
<path d="M285.009 356.629C285.009 356.629 281.358 363.931 283.792 364.539C286.226 365.148 288.965 364.235 289.269 363.931C289.574 363.627 293.834 362.41 294.442 363.018C295.051 363.627 295.051 360.584 295.051 360.584L285.009 356.629Z" fill="#2F2E41"/>
<path d="M288.052 346.59C288.052 346.59 282.271 354.5 286.531 356.629C290.791 358.759 311.178 358.759 312.7 356.629C314.221 354.5 314.83 347.807 312.7 347.198C310.57 346.59 288.052 346.59 288.052 346.59Z" fill="#2F2E41"/>
<path opacity="0.2" d="M288.052 346.59C288.052 346.59 282.271 354.5 286.531 356.629C290.791 358.759 311.178 358.759 312.7 356.629C314.221 354.5 314.83 347.807 312.7 347.198C310.57 346.59 288.052 346.59 288.052 346.59Z" fill="black"/>
<path d="M299.007 310.691C302.872 310.691 306.005 307.558 306.005 303.694C306.005 299.829 302.872 296.696 299.007 296.696C295.141 296.696 292.008 299.829 292.008 303.694C292.008 307.558 295.141 310.691 299.007 310.691Z" fill="#FFB9B9"/>
<path d="M288.052 314.646L294.138 313.429C294.138 313.429 295.659 318.297 300.528 317.384C305.397 316.471 306.614 313.429 306.614 313.429C306.614 313.429 310.265 314.95 310.57 314.95C310.874 314.95 314.83 316.471 314.83 317.384C314.83 318.297 310.265 327.423 310.265 327.423L310.874 343.852L288.356 343.243L289.878 327.119L288.052 314.646Z" fill="#6C63FF"/>
<path d="M284.705 322.556C284.705 322.556 282.879 338.68 284.096 339.897C285.314 341.114 290.182 344.46 290.182 344.46V340.81L287.748 336.246L290.182 325.598L284.705 322.556Z" fill="#FFB9B9"/>
<path d="M316.199 322.099C316.199 322.099 315.134 338.68 315.134 339.288C315.134 339.897 312.395 342.026 311.483 342.026C310.57 342.026 309.961 340.505 309.961 340.505L312.091 338.071L310.57 325.598L316.199 322.099Z" fill="#FFB9B9"/>
<path d="M313.308 345.373C313.308 345.373 327.001 337.767 327.306 345.373C327.61 352.979 320.307 356.021 320.307 356.021C320.307 356.021 301.441 361.677 300.68 359.61C299.92 357.542 298.398 354.196 299.615 353.891C300.832 353.587 302.354 352.979 302.962 353.587C303.571 354.196 311.178 349.024 311.178 349.024L313.308 345.373Z" fill="#2F2E41"/>
<path opacity="0.2" d="M319.698 344.46C319.698 344.46 316.96 345.677 316.047 346.59C315.134 347.503 311.178 349.024 311.178 349.024" stroke="black" stroke-width="2" stroke-miterlimit="10"/>
<path d="M289.878 315.254L288.052 314.646C288.052 314.646 281.358 321.643 283.488 323.468C285.618 325.294 286.835 325.902 287.444 326.511C288.052 327.119 291.095 327.423 291.095 327.423L289.878 315.254Z" fill="#6C63FF"/>
<path d="M312.091 316.775L314.83 317.384C314.83 317.384 316.96 321.947 317.568 322.556C318.177 323.164 316.656 322.86 315.743 324.077C314.83 325.294 313.917 327.423 312.091 327.423C310.265 327.423 307.831 324.381 307.831 324.381L312.091 316.775Z" fill="#6C63FF"/>
<path d="M288.661 348.111C288.661 348.111 277.098 339.897 273.142 345.981C269.186 352.066 290.182 360.28 293.225 361.497C296.268 362.714 299.007 363.931 299.007 363.931C299.007 363.931 301.745 357.238 301.745 356.021C301.745 354.804 299.615 354.804 299.007 354.804C298.398 354.804 295.659 354.196 295.051 353.283C294.442 352.37 288.661 348.111 288.661 348.111Z" fill="#2F2E41"/>
<path opacity="0.2" d="M282.271 345.981C282.271 345.981 285.314 348.415 288.052 349.024C290.791 349.632 291.704 351.153 291.704 351.153" stroke="black" stroke-width="2" stroke-miterlimit="10"/>
<path d="M286.562 334.542L286.805 347.424C286.813 347.849 286.989 348.254 287.294 348.551C287.6 348.847 288.01 349.011 288.436 349.006L312.412 348.736C312.82 348.732 313.212 348.572 313.507 348.29C313.803 348.008 313.98 347.625 314.004 347.217L314.731 334.605C314.744 334.386 314.712 334.166 314.637 333.96C314.561 333.754 314.445 333.565 314.294 333.405C314.143 333.245 313.962 333.118 313.76 333.031C313.558 332.944 313.341 332.9 313.121 332.9H288.174C287.96 332.9 287.748 332.942 287.55 333.025C287.352 333.108 287.173 333.23 287.023 333.383C286.873 333.536 286.755 333.717 286.676 333.916C286.596 334.115 286.558 334.328 286.562 334.542Z" fill="#575A89"/>
<path d="M283.788 314.722C284.441 313.282 285.319 311.93 285.737 310.404C286.238 308.576 286.043 306.641 285.984 304.746C285.888 303.071 286.031 301.39 286.408 299.754C286.79 298.11 287.649 296.616 288.876 295.458C292.065 292.611 297.901 292.407 301.795 293.592C303.33 294.059 304.965 294.949 305.346 296.507C305.403 296.742 305.429 296.985 305.493 297.218C305.812 298.379 306.999 299.113 307.428 300.237C307.982 301.692 307.127 303.274 307.016 304.826C306.885 306.638 307.776 308.351 308.655 309.941C309.177 310.887 309.72 311.894 309.668 312.973C309.625 313.563 309.445 314.136 309.144 314.645C308.584 315.568 307.799 316.334 306.862 316.87C305.926 317.407 304.868 317.697 303.789 317.714C303.087 317.77 302.385 317.604 301.783 317.24C300.833 316.586 300.554 315.269 300.752 314.132C300.95 312.996 301.527 311.968 301.979 310.907C302.118 310.581 302.243 310.25 302.359 309.915C303.76 309.133 304.841 307.88 305.409 306.379C305.977 304.878 305.996 303.224 305.462 301.71C304.929 300.196 303.878 298.919 302.494 298.104C301.111 297.29 299.484 296.991 297.901 297.259C296.318 297.528 294.881 298.347 293.843 299.572C292.806 300.797 292.235 302.349 292.231 303.954C292.226 305.559 292.79 307.114 293.821 308.344C294.853 309.574 296.286 310.401 297.867 310.677C298.208 312.394 298.053 314.173 297.42 315.805C296.845 317.133 296.123 318.392 295.267 319.559C294.917 320.157 294.45 320.679 293.895 321.094C293.529 321.311 293.136 321.479 292.726 321.593C291.007 322.146 289.197 322.591 287.409 322.342C285.621 322.093 283.85 321.015 283.24 319.316C282.706 317.827 283.135 316.163 283.788 314.722Z" fill="#2F2E41"/>
<path d="M298.668 303.973C302.77 303.973 306.095 302.089 306.095 299.765C306.095 297.441 302.77 295.557 298.668 295.557C294.566 295.557 291.24 297.441 291.24 299.765C291.24 302.089 294.566 303.973 298.668 303.973Z" fill="#2F2E41"/>
<path opacity="0.3" d="M412.146 286.905C412.033 286.625 411.825 286.395 411.558 286.253C411.393 286.156 411.214 286.083 411.027 286.037C411.153 285.976 411.268 285.896 411.368 285.799C411.517 285.66 411.629 285.487 411.694 285.294C411.755 285.097 411.78 284.89 411.768 284.684C411.767 284.342 411.671 284.006 411.492 283.715C411.291 283.448 411.018 283.245 410.705 283.13C410.401 283.012 410.08 282.947 409.754 282.938V281.555L408.918 282.096V282.94H408.248V282.052L407.391 281.555V282.94H405.57L406.155 283.979C406.279 283.97 406.404 283.987 406.521 284.028C406.58 284.055 406.628 284.101 406.657 284.158C406.693 284.281 406.706 284.409 406.697 284.537V288.285C406.706 288.412 406.693 288.54 406.657 288.662C406.63 288.718 406.615 288.768 406.551 288.798C406.486 288.829 406.484 288.827 406.304 288.827H406.302L405.57 289.865H407.389V291.25H408.246V289.865H408.915V291.25H409.752V289.857C410.175 289.849 410.594 289.774 410.994 289.634C411.365 289.501 411.689 289.265 411.929 288.952C412.137 288.619 412.251 288.236 412.259 287.844C412.281 287.527 412.243 287.208 412.146 286.905ZM408.246 284.108L408.247 284.08H408.831C409.16 284.08 410.256 283.966 410.274 284.893C410.293 285.819 408.831 285.781 408.831 285.781H408.247V285.71L408.246 284.108ZM408.246 286.749H408.915C409.051 286.749 409.519 286.77 409.689 286.778C409.759 286.781 409.827 286.794 409.893 286.816C409.917 286.824 409.94 286.834 409.965 286.845C410.068 286.879 410.166 286.93 410.253 286.996C410.311 287.035 410.361 287.084 410.402 287.141C410.466 287.232 410.512 287.335 410.539 287.443C410.559 287.519 410.569 287.597 410.569 287.675C410.576 287.824 410.54 287.972 410.465 288.102C410.358 288.273 410.2 288.408 410.014 288.487C409.665 288.629 409.292 288.701 408.915 288.697H408.246V286.749Z" fill="#6C63FF"/>
<path d="M71.9517 325.275C76.7235 325.275 80.5918 321.408 80.5918 316.637C80.5918 311.866 76.7235 307.998 71.9517 307.998C67.1799 307.998 63.3116 311.866 63.3116 316.637C63.3116 321.408 67.1799 325.275 71.9517 325.275Z" fill="#F2F2F2"/>
<path opacity="0.3" d="M75.1817 317.139C75.0686 316.859 74.8605 316.629 74.5941 316.487C74.4283 316.39 74.2495 316.317 74.063 316.271C74.1887 316.21 74.3037 316.13 74.4038 316.033C74.5527 315.895 74.6649 315.721 74.73 315.529C74.7908 315.331 74.8156 315.125 74.8032 314.918C74.8021 314.576 74.7066 314.24 74.5272 313.949C74.327 313.682 74.0539 313.479 73.741 313.364C73.4371 313.247 73.1154 313.181 72.7896 313.172V311.789L71.9532 312.33V313.174H71.284V312.287L70.4268 311.789V313.174H68.6055L69.191 314.213C69.3151 314.204 69.4396 314.221 69.5569 314.263C69.6158 314.289 69.6638 314.335 69.6928 314.392C69.7285 314.515 69.7419 314.644 69.7325 314.771V318.52C69.7417 318.647 69.7282 318.774 69.6928 318.896C69.6656 318.953 69.651 319.002 69.5862 319.033C69.5214 319.063 69.5193 319.061 69.3395 319.061H69.3374L68.6055 320.1H70.4247V321.485H71.282V320.1H71.9511V321.485H72.7875V320.091C73.2108 320.083 73.6301 320.008 74.0295 319.868C74.4003 319.736 74.7249 319.499 74.9642 319.186C75.1729 318.854 75.2871 318.471 75.2946 318.078C75.3166 317.761 75.2783 317.442 75.1817 317.139ZM71.282 314.343L71.2822 314.314H71.8668C72.1958 314.314 73.2919 314.2 73.31 315.127C73.3284 316.054 71.8668 316.016 71.8668 316.016H71.2822V315.944L71.282 314.343ZM71.282 316.983H71.9511C72.087 316.983 72.5546 317.005 72.7248 317.013C72.7943 317.015 72.863 317.028 72.9289 317.05C72.9529 317.059 72.9757 317.068 73.0004 317.079C73.1039 317.113 73.2013 317.164 73.2887 317.23C73.3463 317.269 73.3968 317.318 73.4378 317.375C73.5012 317.467 73.5475 317.569 73.5744 317.677C73.5943 317.753 73.6046 317.831 73.6051 317.909C73.612 318.059 73.5757 318.207 73.5007 318.336C73.3934 318.507 73.2358 318.642 73.0495 318.721C72.7011 318.864 72.3276 318.935 71.9511 318.931H71.282L71.282 316.983Z" fill="#6C63FF"/>
<g clip-path="url(#clip4_1_2)">
<path d="M457.605 229.393C456.97 229.719 456.25 229.149 456.378 228.42L457.743 220.646L451.951 215.13C451.41 214.614 451.691 213.671 452.416 213.569L460.468 212.425L464.059 205.313C464.383 204.672 465.259 204.672 465.583 205.313L469.173 212.425L477.225 213.569C477.95 213.671 478.231 214.614 477.689 215.13L471.899 220.646L473.263 228.42C473.391 229.149 472.671 229.719 472.037 229.393L464.818 225.686L457.605 229.393Z" fill="#F2F2F2"/>
</g>
</g>
<g clip-path="url(#clip5_1_2)">
<path d="M707.372 223.713C753.564 187.917 817.827 186.454 864.711 221.331C889.495 239.769 908.709 267.977 905.213 310.926C903.977 326.118 900.539 338.58 895.522 348.783C875.202 390.142 791.742 388.55 787.107 388.544C784.104 388.541 781.101 388.608 778.098 388.746C767.58 389.232 757.117 390.562 746.809 392.723C732.113 395.803 713.405 397.35 696.689 391.518C693.848 390.531 691.089 389.325 688.434 387.909C679.248 383.001 668.965 378.311 662.953 366.67C658.435 357.934 655.144 346.979 653.56 333.334C647.794 283.643 676.603 247.557 707.372 223.713Z" fill="#F2F2F2"/>
<path d="M777.896 401.806C704.947 401.806 645.81 396.225 645.81 389.341C645.81 382.456 704.947 376.876 777.896 376.876C850.846 376.876 909.983 382.456 909.983 389.341C909.983 396.225 850.846 401.806 777.896 401.806Z" fill="#3F3D56"/>
<path opacity="0.1" d="M784.349 395.192C716.5 395.192 661.498 392.572 661.498 389.341C661.498 386.109 716.5 383.49 784.349 383.49C852.197 383.49 907.2 386.109 907.2 389.341C907.2 392.572 852.197 395.192 784.349 395.192Z" fill="black"/>
<path d="M716.386 222.395V236.38H734.496V388.896H696.701V242.185V236.38V222.395H716.386Z" fill="#575A89"/>
<path d="M816.121 316.332V292.32H839.218V316.332H847.879V389.16H807.723V316.332H816.121Z" fill="#575A89"/>
<path d="M812.184 355.384H843.417V389.423H812.184V355.384Z" fill="#3F3D56"/>
<path opacity="0.1" d="M838.431 355.384H843.417V389.423H838.431V355.384Z" fill="black"/>
<path d="M747.881 214.743V222.923H794.075V214.743H807.723V389.423H734.496V214.743H747.881Z" fill="#3F3D56"/>
<path opacity="0.1" d="M737.645 214.743H747.881V222.923H737.645V214.743Z" fill="black"/>
<path opacity="0.1" d="M797.487 214.743H807.723V389.423H797.487V214.743Z" fill="black"/>
<path d="M859.952 264.614V258.017H866.776V264.614H879.112V389.423H847.879V264.614H859.952Z" fill="#3F3D56"/>
<path opacity="0.1" d="M863.102 258.017H866.776V264.614H863.102V258.017Z" fill="black"/>
<path opacity="0.1" d="M875.438 264.614H879.112V389.423H875.438V264.614Z" fill="black"/>
<path opacity="0.1" d="M737.645 282.029H747.881V389.423H737.645V282.029Z" fill="black"/>
<path opacity="0.1" d="M847.879 264.614H857.328V287.57H847.879V264.614Z" fill="black"/>
<path d="M781.739 236.908H796.437V243.241H781.739V236.908Z" fill="#FF6584"/>
<path d="M750.506 302.083H765.204V308.416H750.506V302.083Z" fill="#FF6584"/>
<path d="M781.739 347.732H796.437V354.065H781.739V347.732Z" fill="#FF6584"/>
<path d="M856.016 293.112H870.713V299.444H856.016V293.112Z" fill="#FF6584"/>
<path d="M820.321 359.079H835.019V365.411H820.321V359.079Z" fill="#FF6584"/>
<path opacity="0.1" d="M815.072 321.873H840.268V332.428H815.072V321.873Z" fill="black"/>
<path opacity="0.1" d="M704.838 248.518H730.034V259.073H704.838V248.518Z" fill="black"/>
<path opacity="0.1" d="M704.838 270.947H730.034V281.501H704.838V270.947Z" fill="black"/>
<path opacity="0.1" d="M704.838 293.375H730.034V303.93H704.838V293.375Z" fill="black"/>
<path opacity="0.1" d="M704.838 315.804H730.034V326.359H704.838V315.804Z" fill="black"/>
<path opacity="0.1" d="M704.838 338.233H730.034V348.788H704.838V338.233Z" fill="black"/>
<path opacity="0.1" d="M704.838 360.662H730.034V371.217H704.838V360.662Z" fill="black"/>
<path d="M688.04 296.278V267.516H706.413V296.278H712.974V389.423H681.741V296.278H688.04Z" fill="#3F3D56"/>
<path opacity="0.1" d="M700.638 267.516H706.413V296.278H700.638V267.516Z" fill="black"/>
<path opacity="0.1" d="M707.2 296.278H712.974V389.423H707.2V296.278Z" fill="black"/>
<path opacity="0.1" d="M681.741 342.983H697.226V352.218H681.741V342.983Z" fill="black"/>
<path d="M682.004 329.262H696.701V335.594H682.004V329.262Z" fill="#FF6584"/>
<path d="M636 335.655C636 359.163 649.901 367.371 667.048 367.371C684.196 367.371 698.097 359.163 698.097 335.655C698.097 312.147 667.048 282.24 667.048 282.24C667.048 282.24 636 312.147 636 335.655Z" fill="#6C63FF"/>
<path d="M668.179 363.775L667.861 344.101L654.628 319.761L667.812 341.014L667.669 332.168L658.548 314.558L667.631 329.827L667.374 313.917L657.607 299.897L667.333 311.415L667.173 282.24L668.182 320.862L668.099 319.269L678.029 303.988L668.258 322.327L669.184 340.097L669.211 339.625L680.658 323.544L669.246 341.291L669.362 343.514L669.382 343.547L669.373 343.729L671.72 388.812H668.584L668.208 365.526L656.823 347.823L668.179 363.775Z" fill="#3F3D56"/>
<path d="M863.552 335.909C863.552 359.418 877.452 367.626 894.6 367.626C911.747 367.626 925.648 359.418 925.648 335.909C925.648 312.401 894.6 282.495 894.6 282.495C894.6 282.495 863.552 312.401 863.552 335.909Z" fill="#6C63FF"/>
<path d="M895.731 364.03L895.413 344.355L882.179 320.015L895.363 341.269L895.22 332.423L886.1 314.813L895.182 330.081V330.082L894.925 314.171L885.159 300.151L894.885 311.669L894.724 282.494L895.734 321.116L895.651 319.523L905.581 304.243L895.81 322.581L896.735 340.351L896.763 339.879L908.21 323.799L896.797 341.546L896.913 343.768L896.934 343.801L896.924 343.984L899.272 389.066H896.136L895.759 365.78L884.375 348.077L895.731 364.03Z" fill="#3F3D56"/>
<path d="M963.9 438C922.976 438 889.801 433.488 889.801 427.923C889.801 422.358 922.976 417.846 963.9 417.846C1004.82 417.846 1038 422.358 1038 427.923C1038 433.488 1004.82 438 963.9 438Z" fill="#3F3D56"/>
<path opacity="0.1" d="M963.9 435.809C931.873 435.809 905.909 432.279 905.909 427.923C905.909 423.568 931.873 420.037 963.9 420.037C995.928 420.037 1021.89 423.568 1021.89 427.923C1021.89 432.279 995.928 435.809 963.9 435.809Z" fill="black"/>
<path d="M974.378 284.452C965.685 284.452 958.637 277.367 958.637 268.627C958.637 259.887 965.685 252.801 974.378 252.801C983.072 252.801 990.119 259.887 990.119 268.627C990.119 277.367 983.072 284.452 974.378 284.452Z" fill="#2F2E41"/>
<path d="M970.079 282.793C965.213 282.793 961.269 278.827 961.269 273.935C961.269 269.044 965.213 265.078 970.079 265.078C974.945 265.078 978.889 269.044 978.889 273.935C978.889 278.827 974.945 282.793 970.079 282.793Z" fill="#FFB9B9"/>
<path d="M975.007 278.589C975.007 278.589 972.767 283.994 976.201 285.495C979.636 286.996 978.292 295.853 978.292 295.853L964.853 293.001C964.853 293.001 964.853 289.248 967.541 287.597C970.228 285.945 963.957 278.589 963.957 278.589H975.007Z" fill="#FFB9B9"/>
<path d="M979.337 318.522L978.889 323.476L958.73 326.929L960.672 317.771L979.337 318.522Z" fill="#FFB9B9"/>
<path d="M979.636 358.305L978.889 379.322C978.889 379.322 982.473 387.879 979.636 403.642C976.799 419.405 978.889 423.758 978.889 423.758L968.735 425.109L969.333 419.255L971.722 414.151L970.676 385.027C970.676 385.027 966.047 374.218 965.898 372.116C965.749 370.014 966.197 354.702 966.197 354.702L979.636 358.305Z" fill="#FFB9B9"/>
<path opacity="0.1" d="M979.636 358.305L978.889 379.322C978.889 379.322 982.473 387.879 979.636 403.642C976.799 419.405 978.889 423.758 978.889 423.758L968.735 425.109L969.333 419.255L971.722 414.151L970.676 385.027C970.676 385.027 966.047 374.218 965.898 372.116C965.749 370.014 966.197 354.702 966.197 354.702L979.636 358.305Z" fill="black"/>
<path d="M976.5 416.553C976.5 416.553 976.5 414.601 977.396 414.451C978.292 414.301 979.486 413.85 979.486 414.451C979.486 415.051 979.636 419.255 979.934 419.855C980.233 420.456 980.83 422.708 980.382 423.608C980.382 423.608 981.726 427.061 980.681 427.361C979.636 427.662 973.663 427.662 973.663 427.662L973.364 426.01C973.364 426.01 960.074 430.214 957.237 426.461C957.237 426.461 955.893 423.758 958.283 423.158C958.283 423.158 963.658 423.308 965.599 421.056C967.541 418.804 971.274 413.55 971.274 413.55C971.274 413.55 974.26 414 973.962 415.952V416.553H976.5Z" fill="#2F2E41"/>
<path d="M971.423 358.755C971.423 358.755 969.93 369.264 964.704 376.92C964.704 376.92 962.016 383.225 962.464 385.177C962.912 387.128 962.912 397.787 958.432 407.245L954.251 421.056L952.16 426.01L948.577 427.511L942.753 427.962L946.038 421.056L947.681 417.453C947.681 417.453 950.667 411.298 950.667 405.894C950.667 400.489 952.608 387.729 952.608 387.729C952.608 387.729 952.608 358.905 955.744 357.104C958.88 355.302 971.423 358.755 971.423 358.755Z" fill="#FFB9B9"/>
<path d="M978.143 321.975L979.636 321.674V328.43C979.636 328.43 980.233 333.684 981.577 334.735C982.921 335.786 988.147 356.503 986.355 357.704C984.563 358.905 960.522 365.21 954.699 358.755L958.731 339.089C958.731 339.089 958.432 325.578 958.731 325.578C959.029 325.578 978.143 321.975 978.143 321.975Z" fill="#2F2E41"/>
<path d="M963.957 291.65C963.957 291.65 971.423 286.546 978.889 293.151C978.889 293.151 981.577 304.26 982.025 306.962C982.473 309.665 985.31 320.774 983.22 321.825C981.129 322.875 981.129 319.273 975.753 320.023C970.378 320.774 958.88 320.474 958.88 319.573C958.88 318.672 961.568 311.466 960.522 310.265C959.477 309.064 957.685 303.359 959.477 300.507C961.269 297.655 963.957 291.65 963.957 291.65Z" fill="#6C63FF"/>
<path d="M973.663 321.975L958.731 329.031C958.731 329.031 952.758 336.687 951.414 332.333C950.07 327.98 955.893 324.827 955.893 324.827L965.898 319.122L973.663 321.675L973.663 321.975Z" fill="#FFB9B9"/>
<path opacity="0.1" d="M972.618 293.151C972.618 293.151 981.129 319.573 973.364 323.776C965.599 327.98 964.405 320.023 964.405 320.023C964.405 320.023 969.631 316.72 967.989 312.667C966.346 308.614 964.853 293.151 964.853 293.151L972.618 293.151Z" fill="black"/>
<path d="M973.066 292.25C973.066 292.25 981.577 318.672 973.812 322.875C966.047 327.079 964.853 319.122 964.853 319.122C964.853 319.122 970.079 315.82 968.437 311.766C966.794 307.713 965.301 292.25 965.301 292.25L973.066 292.25Z" fill="#6C63FF"/>
<path d="M952.543 419.639C952.543 419.639 952.693 417.595 953.643 417.507C954.593 417.419 955.879 417.04 955.833 417.669C955.787 418.298 955.62 422.712 955.887 423.364C956.154 424.017 956.606 426.421 956.068 427.33C956.068 427.33 957.21 431.051 956.093 431.284C954.975 431.518 948.719 431.054 948.719 431.054L948.533 429.301C948.533 429.301 934.291 432.672 931.607 428.521C931.607 428.521 930.407 425.587 932.956 425.143C932.956 425.143 938.575 425.718 940.781 423.51C942.987 421.302 947.3 416.088 947.3 416.088C947.3 416.088 950.394 416.792 949.931 418.813L949.885 419.442L952.543 419.639Z" fill="#2F2E41"/>
<path d="M970.098 273.902C964.226 273.902 959.465 271.354 959.465 268.21C959.465 265.067 964.226 262.519 970.098 262.519C975.97 262.519 980.73 265.067 980.73 268.21C980.73 271.354 975.97 273.902 970.098 273.902Z" fill="#2F2E41"/>
<path d="M978.935 277.789C978.096 277.789 977.416 276.732 977.416 275.429C977.416 274.126 978.096 273.069 978.935 273.069C979.774 273.069 980.454 274.126 980.454 275.429C980.454 276.732 979.774 277.789 978.935 277.789Z" fill="#FFB9B9"/>
<path d="M984.044 260.298C979.926 260.298 976.587 256.941 976.587 252.801C976.587 248.661 979.926 245.305 984.044 245.305C988.162 245.305 991.5 248.661 991.5 252.801C991.5 256.941 988.162 260.298 984.044 260.298Z" fill="#2F2E41"/>
</g>
<g clip-path="url(#clip6_1_2)">
<path d="M914.998 163.921C914.25 164.304 913.402 163.632 913.553 162.774L915.161 153.609L908.335 147.107C907.698 146.499 908.029 145.387 908.883 145.267L918.373 143.918L922.605 135.534C922.987 134.779 924.019 134.779 924.401 135.534L928.632 143.918L938.122 145.267C938.977 145.387 939.308 146.499 938.669 147.107L931.845 153.609L933.453 162.774C933.604 163.632 932.755 164.304 932.008 163.921L923.5 159.55L914.998 163.921Z" fill="#F2F2F2"/>
</g>
<g clip-path="url(#clip7_1_2)">
<path d="M47.1587 111.433C46.0731 111.99 44.8412 111.014 45.0606 109.768L47.395 96.4653L37.4866 87.0266C36.5612 86.1434 37.0422 84.5291 38.2825 84.3547L52.0581 82.3972L58.2006 70.2275C58.7547 69.1306 60.2537 69.1306 60.8078 70.2275L66.9503 82.3972L80.7259 84.3547C81.9663 84.5291 82.4472 86.1434 81.5191 87.0266L71.6134 96.4653L73.9478 109.768C74.1672 111.014 72.9353 111.99 71.8497 111.433L59.5 105.088L47.1587 111.433Z" fill="#F2F2F2"/>
</g>
</g>
<defs>
<clipPath id="clip0_1_2">
<rect width="1080" height="438" fill="white"/>
</clipPath>
<clipPath id="clip1_1_2">
<rect width="44" height="44" fill="white" transform="translate(764 -13)"/>
</clipPath>
<clipPath id="clip2_1_2">
<rect width="44" height="44" fill="white" transform="translate(282 24)"/>
</clipPath>
<clipPath id="clip3_1_2">
<rect width="448" height="302" fill="white" transform="translate(41 109)"/>
</clipPath>
<clipPath id="clip4_1_2">
<rect width="26.303" height="26.2978" fill="white" transform="translate(451.667 204.011)"/>
</clipPath>
<clipPath id="clip5_1_2">
<rect width="402" height="242" fill="white" transform="matrix(-1 0 0 1 1038 196)"/>
</clipPath>
<clipPath id="clip6_1_2">
<rect width="31" height="31" fill="white" transform="translate(908 134)"/>
</clipPath>
<clipPath id="clip7_1_2">
<rect width="45" height="45" fill="white" transform="translate(37 68)"/>
</clipPath>
</defs>
</svg>
