<svg width="568" height="518" viewBox="0 0 568 518" fill="none" xmlns="http://www.w3.org/2000/svg">
<g clip-path="url(#clip0_16_20)">
<path d="M488.79 47.567L13.5508 186.032L26.1385 229.235L501.378 90.7705L488.79 47.567Z" fill="#FFB13C"/>
<path d="M70.3292 384.481L0.282671 144.068C-0.236634 142.286 -0.0265903 140.37 0.866564 138.743C1.75972 137.115 3.26282 135.909 5.04524 135.39L468.764 0.281189C470.546 -0.236372 472.461 -0.025616 474.088 0.867218C475.715 1.76005 476.921 3.26201 477.442 5.0434L539.498 218.032L537.578 218.592L475.522 5.60297C475.149 4.33108 474.287 3.25886 473.125 2.62122C471.963 1.98357 470.596 1.83249 469.323 2.2011L5.60469 137.31C4.33153 137.68 3.25789 138.542 2.61992 139.705C1.98195 140.867 1.83192 142.236 2.20284 143.509L72.2493 383.922L70.3292 384.481Z" fill="#FFB13C"/>
<path d="M436.862 219.022C435.455 219.02 434.087 218.563 432.961 217.719C431.836 216.875 431.014 215.689 430.619 214.339L418.87 174.016C418.39 172.361 418.586 170.583 419.415 169.072C420.244 167.561 421.638 166.441 423.292 165.957L463.616 154.208C465.271 153.728 467.049 153.924 468.56 154.753C470.071 155.583 471.191 156.977 471.674 158.631L483.423 198.955C483.903 200.61 483.707 202.387 482.878 203.898C482.049 205.409 480.655 206.529 479.001 207.013L438.677 218.762C438.088 218.934 437.477 219.022 436.862 219.022Z" fill="white"/>
<path d="M350.676 202.942C350.463 202.177 350.102 201.461 349.612 200.835C349.122 200.21 348.514 199.687 347.822 199.297C347.13 198.907 346.368 198.657 345.58 198.562C344.791 198.467 343.991 198.528 343.226 198.742L276.836 217.312L269.686 219.312H314.586L321.736 217.312L346.486 210.392C348.029 209.958 349.337 208.931 350.122 207.534C350.908 206.137 351.107 204.485 350.676 202.942Z" fill="#CCCCCC"/>
<path d="M303.706 189.072C303.274 187.529 302.246 186.22 300.849 185.434C299.452 184.649 297.8 184.45 296.256 184.882L196.637 212.742C195.245 213.136 194.039 214.015 193.238 215.22C192.437 216.424 192.092 217.876 192.266 219.312H218.056L225.216 217.312L299.516 196.532C301.061 196.097 302.369 195.067 303.155 193.669C303.94 192.27 304.139 190.617 303.706 189.072Z" fill="#CCCCCC"/>
<rect x="72" y="219" width="493" height="298" rx="3" fill="url(#paint0_linear_16_20)"/>
<path d="M560.17 217.31H77.1699C75.314 217.312 73.5348 218.05 72.2225 219.362C70.9102 220.674 70.172 222.454 70.1699 224.31V510.31C70.1719 512.166 70.9101 513.945 72.2224 515.257C73.5347 516.569 75.314 517.308 77.1699 517.31H560.17C562.026 517.308 563.806 516.569 565.118 515.257C566.43 513.945 567.168 512.166 567.17 510.31V224.31C567.168 222.454 566.43 220.675 565.118 219.362C563.805 218.05 562.026 217.312 560.17 217.31ZM565.17 510.31C565.17 511.636 564.643 512.907 563.705 513.845C562.768 514.782 561.496 515.309 560.17 515.31H77.1699C75.844 515.309 74.5725 514.782 73.6349 513.845C72.6973 512.907 72.1704 511.636 72.1699 510.31V224.31C72.1705 222.984 72.6975 221.712 73.635 220.775C74.5726 219.837 75.844 219.31 77.1699 219.31H560.17C561.496 219.31 562.768 219.837 563.705 220.775C564.643 221.712 565.17 222.984 565.17 224.31V510.31Z" fill="white"/>
<path d="M172.81 386.09C170.424 386.087 168.136 385.138 166.449 383.451C164.762 381.764 163.813 379.476 163.81 377.09V350.09C163.81 347.703 164.758 345.414 166.446 343.726C168.134 342.038 170.423 341.09 172.81 341.09C175.197 341.09 177.486 342.038 179.174 343.726C180.862 345.414 181.81 347.703 181.81 350.09V377.09C181.807 379.476 180.858 381.764 179.171 383.451C177.484 385.138 175.196 386.087 172.81 386.09Z" fill="white"/>
<path d="M196.81 386.09C194.424 386.087 192.136 385.138 190.449 383.451C188.762 381.764 187.813 379.476 187.81 377.09V350.09C187.81 347.703 188.758 345.414 190.446 343.726C192.134 342.038 194.423 341.09 196.81 341.09C199.197 341.09 201.486 342.038 203.174 343.726C204.862 345.414 205.81 347.703 205.81 350.09V377.09C205.807 379.476 204.858 381.764 203.171 383.451C201.484 385.138 199.196 386.087 196.81 386.09Z" fill="white"/>
<path d="M220.81 386.09C218.424 386.087 216.136 385.138 214.449 383.451C212.762 381.764 211.813 379.476 211.81 377.09V350.09C211.81 347.703 212.758 345.414 214.446 343.726C216.134 342.038 218.423 341.09 220.81 341.09C223.197 341.09 225.486 342.038 227.174 343.726C228.862 345.414 229.81 347.703 229.81 350.09V377.09C229.807 379.476 228.858 381.764 227.171 383.451C225.484 385.138 223.196 386.087 220.81 386.09Z" fill="white"/>
<path d="M257.81 386.09C255.424 386.087 253.136 385.138 251.449 383.451C249.762 381.764 248.813 379.476 248.81 377.09V350.09C248.81 347.703 249.758 345.414 251.446 343.726C253.134 342.038 255.423 341.09 257.81 341.09C260.197 341.09 262.486 342.038 264.174 343.726C265.862 345.414 266.81 347.703 266.81 350.09V377.09C266.807 379.476 265.858 381.764 264.171 383.451C262.484 385.138 260.196 386.087 257.81 386.09Z" fill="white"/>
<path d="M281.81 386.09C279.424 386.087 277.136 385.138 275.449 383.451C273.762 381.764 272.813 379.476 272.81 377.09V350.09C272.81 347.703 273.758 345.414 275.446 343.726C277.134 342.038 279.423 341.09 281.81 341.09C284.197 341.09 286.486 342.038 288.174 343.726C289.862 345.414 290.81 347.703 290.81 350.09V377.09C290.807 379.476 289.858 381.764 288.171 383.451C286.484 385.138 284.196 386.087 281.81 386.09Z" fill="white"/>
<path d="M305.81 386.09C303.424 386.087 301.136 385.138 299.449 383.451C297.762 381.764 296.813 379.476 296.81 377.09V350.09C296.81 347.703 297.758 345.414 299.446 343.726C301.134 342.038 303.423 341.09 305.81 341.09C308.197 341.09 310.486 342.038 312.174 343.726C313.862 345.414 314.81 347.703 314.81 350.09V377.09C314.807 379.476 313.858 381.764 312.171 383.451C310.484 385.138 308.196 386.087 305.81 386.09Z" fill="white"/>
<path d="M342.81 386.09C340.424 386.087 338.136 385.138 336.449 383.451C334.762 381.764 333.813 379.476 333.81 377.09V350.09C333.81 347.703 334.758 345.414 336.446 343.726C338.134 342.038 340.423 341.09 342.81 341.09C345.197 341.09 347.486 342.038 349.174 343.726C350.862 345.414 351.81 347.703 351.81 350.09V377.09C351.807 379.476 350.858 381.764 349.171 383.451C347.484 385.138 345.196 386.087 342.81 386.09Z" fill="white"/>
<path d="M366.81 386.09C364.424 386.087 362.136 385.138 360.449 383.451C358.762 381.764 357.813 379.476 357.81 377.09V350.09C357.81 347.703 358.758 345.414 360.446 343.726C362.134 342.038 364.423 341.09 366.81 341.09C369.197 341.09 371.486 342.038 373.174 343.726C374.862 345.414 375.81 347.703 375.81 350.09V377.09C375.807 379.476 374.858 381.764 373.171 383.451C371.484 385.138 369.196 386.087 366.81 386.09Z" fill="white"/>
<path d="M390.81 386.09C388.424 386.087 386.136 385.138 384.449 383.451C382.762 381.764 381.813 379.476 381.81 377.09V350.09C381.81 347.703 382.758 345.414 384.446 343.726C386.134 342.038 388.423 341.09 390.81 341.09C393.197 341.09 395.486 342.038 397.174 343.726C398.862 345.414 399.81 347.703 399.81 350.09V377.09C399.807 379.476 398.858 381.764 397.171 383.451C395.484 385.138 393.196 386.087 390.81 386.09Z" fill="white"/>
<path d="M427.81 386.09C425.424 386.087 423.136 385.138 421.449 383.451C419.762 381.764 418.813 379.476 418.81 377.09V350.09C418.81 347.703 419.758 345.414 421.446 343.726C423.134 342.038 425.423 341.09 427.81 341.09C430.197 341.09 432.486 342.038 434.174 343.726C435.862 345.414 436.81 347.703 436.81 350.09V377.09C436.807 379.476 435.858 381.764 434.171 383.451C432.484 385.138 430.196 386.087 427.81 386.09Z" fill="white"/>
<path d="M451.81 386.09C449.424 386.087 447.136 385.138 445.449 383.451C443.762 381.764 442.813 379.476 442.81 377.09V350.09C442.81 347.703 443.758 345.414 445.446 343.726C447.134 342.038 449.423 341.09 451.81 341.09C454.197 341.09 456.486 342.038 458.174 343.726C459.862 345.414 460.81 347.703 460.81 350.09V377.09C460.807 379.476 459.858 381.764 458.171 383.451C456.484 385.138 454.196 386.087 451.81 386.09Z" fill="white"/>
<path d="M475.81 386.09C473.424 386.087 471.136 385.138 469.449 383.451C467.762 381.764 466.813 379.476 466.81 377.09V350.09C466.81 347.703 467.758 345.414 469.446 343.726C471.134 342.038 473.423 341.09 475.81 341.09C478.197 341.09 480.486 342.038 482.174 343.726C483.862 345.414 484.81 347.703 484.81 350.09V377.09C484.807 379.476 483.858 381.764 482.171 383.451C480.484 385.138 478.196 386.087 475.81 386.09Z" fill="white"/>
<path d="M233.828 486.257H104.388C102.784 486.257 101.246 485.62 100.112 484.486C98.9775 483.352 98.3404 481.813 98.3404 480.21C98.3404 478.606 98.9775 477.068 100.112 475.933C101.246 474.799 102.784 474.162 104.388 474.162H233.828C235.432 474.162 236.97 474.799 238.104 475.933C239.238 477.068 239.875 478.606 239.875 480.21C239.875 481.813 239.238 483.352 238.104 484.486C236.97 485.62 235.432 486.257 233.828 486.257Z" fill="#F79E1B"/>
<path d="M192.328 460.257H145.888C144.284 460.257 142.746 459.62 141.612 458.486C140.478 457.352 139.84 455.813 139.84 454.21C139.84 452.606 140.478 451.068 141.612 449.933C142.746 448.799 144.284 448.162 145.888 448.162H192.328C193.932 448.162 195.47 448.799 196.604 449.933C197.738 451.068 198.375 452.606 198.375 454.21C198.375 455.813 197.738 457.352 196.604 458.486C195.47 459.62 193.932 460.257 192.328 460.257Z" fill="white"/>
<path d="M564.81 277.09H71.8101V279.09H564.81V277.09Z" fill="#F79E1B"/>
<path d="M128.634 246.436C129.954 246.436 131.112 246.694 132.108 247.21C133.116 247.726 133.89 248.464 134.43 249.424C134.982 250.372 135.258 251.476 135.258 252.736C135.258 253.996 134.982 255.1 134.43 256.048C133.89 256.984 133.116 257.71 132.108 258.226C131.112 258.742 129.954 259 128.634 259H124.242V246.436H128.634ZM128.544 256.858C129.864 256.858 130.884 256.498 131.604 255.778C132.324 255.058 132.684 254.044 132.684 252.736C132.684 251.428 132.324 250.408 131.604 249.676C130.884 248.932 129.864 248.56 128.544 248.56H126.762V256.858H128.544ZM138.062 247.84C137.618 247.84 137.246 247.702 136.946 247.426C136.658 247.138 136.514 246.784 136.514 246.364C136.514 245.944 136.658 245.596 136.946 245.32C137.246 245.032 137.618 244.888 138.062 244.888C138.506 244.888 138.872 245.032 139.16 245.32C139.46 245.596 139.61 245.944 139.61 246.364C139.61 246.784 139.46 247.138 139.16 247.426C138.872 247.702 138.506 247.84 138.062 247.84ZM139.304 249.028V259H136.784V249.028H139.304ZM145.34 248.866C146.084 248.866 146.738 249.016 147.302 249.316C147.866 249.604 148.31 249.982 148.634 250.45V249.028H151.172V259.072C151.172 259.996 150.986 260.818 150.614 261.538C150.242 262.27 149.684 262.846 148.94 263.266C148.196 263.698 147.296 263.914 146.24 263.914C144.824 263.914 143.66 263.584 142.748 262.924C141.848 262.264 141.338 261.364 141.218 260.224H143.72C143.852 260.68 144.134 261.04 144.566 261.304C145.01 261.58 145.544 261.718 146.168 261.718C146.9 261.718 147.494 261.496 147.95 261.052C148.406 260.62 148.634 259.96 148.634 259.072V257.524C148.31 257.992 147.86 258.382 147.284 258.694C146.72 259.006 146.072 259.162 145.34 259.162C144.5 259.162 143.732 258.946 143.036 258.514C142.34 258.082 141.788 257.476 141.38 256.696C140.984 255.904 140.786 254.998 140.786 253.978C140.786 252.97 140.984 252.076 141.38 251.296C141.788 250.516 142.334 249.916 143.018 249.496C143.714 249.076 144.488 248.866 145.34 248.866ZM148.634 254.014C148.634 253.402 148.514 252.88 148.274 252.448C148.034 252.004 147.71 251.668 147.302 251.44C146.894 251.2 146.456 251.08 145.988 251.08C145.52 251.08 145.088 251.194 144.692 251.422C144.296 251.65 143.972 251.986 143.72 252.43C143.48 252.862 143.36 253.378 143.36 253.978C143.36 254.578 143.48 255.106 143.72 255.562C143.972 256.006 144.296 256.348 144.692 256.588C145.1 256.828 145.532 256.948 145.988 256.948C146.456 256.948 146.894 256.834 147.302 256.606C147.71 256.366 148.034 256.03 148.274 255.598C148.514 255.154 148.634 254.626 148.634 254.014ZM154.551 247.84C154.107 247.84 153.735 247.702 153.435 247.426C153.147 247.138 153.003 246.784 153.003 246.364C153.003 245.944 153.147 245.596 153.435 245.32C153.735 245.032 154.107 244.888 154.551 244.888C154.995 244.888 155.361 245.032 155.649 245.32C155.949 245.596 156.099 245.944 156.099 246.364C156.099 246.784 155.949 247.138 155.649 247.426C155.361 247.702 154.995 247.84 154.551 247.84ZM155.793 249.028V259H153.273V249.028H155.793ZM163.449 248.884C164.637 248.884 165.597 249.262 166.329 250.018C167.061 250.762 167.427 251.806 167.427 253.15V259H164.907V253.492C164.907 252.7 164.709 252.094 164.313 251.674C163.917 251.242 163.377 251.026 162.693 251.026C161.997 251.026 161.445 251.242 161.037 251.674C160.641 252.094 160.443 252.7 160.443 253.492V259H157.923V249.028H160.443V250.27C160.779 249.838 161.205 249.502 161.721 249.262C162.249 249.01 162.825 248.884 163.449 248.884ZM173.369 248.866C174.113 248.866 174.767 249.016 175.331 249.316C175.895 249.604 176.339 249.982 176.663 250.45V249.028H179.201V259.072C179.201 259.996 179.015 260.818 178.643 261.538C178.271 262.27 177.713 262.846 176.969 263.266C176.225 263.698 175.325 263.914 174.269 263.914C172.853 263.914 171.689 263.584 170.777 262.924C169.877 262.264 169.367 261.364 169.247 260.224H171.749C171.881 260.68 172.163 261.04 172.595 261.304C173.039 261.58 173.573 261.718 174.197 261.718C174.929 261.718 175.523 261.496 175.979 261.052C176.435 260.62 176.663 259.96 176.663 259.072V257.524C176.339 257.992 175.889 258.382 175.313 258.694C174.749 259.006 174.101 259.162 173.369 259.162C172.529 259.162 171.761 258.946 171.065 258.514C170.369 258.082 169.817 257.476 169.409 256.696C169.013 255.904 168.815 254.998 168.815 253.978C168.815 252.97 169.013 252.076 169.409 251.296C169.817 250.516 170.363 249.916 171.047 249.496C171.743 249.076 172.517 248.866 173.369 248.866ZM176.663 254.014C176.663 253.402 176.543 252.88 176.303 252.448C176.063 252.004 175.739 251.668 175.331 251.44C174.923 251.2 174.485 251.08 174.017 251.08C173.549 251.08 173.117 251.194 172.721 251.422C172.325 251.65 172.001 251.986 171.749 252.43C171.509 252.862 171.389 253.378 171.389 253.978C171.389 254.578 171.509 255.106 171.749 255.562C172.001 256.006 172.325 256.348 172.721 256.588C173.129 256.828 173.561 256.948 174.017 256.948C174.485 256.948 174.923 256.834 175.331 256.606C175.739 256.366 176.063 256.03 176.303 255.598C176.543 255.154 176.663 254.626 176.663 254.014Z" fill="#012F89"/>
<path d="M115.071 245.929C113.435 244.293 111.283 243.275 108.98 243.048C106.678 242.821 104.368 243.4 102.444 244.685C100.521 245.971 99.1022 247.883 98.4306 250.097C97.759 252.311 97.8758 254.689 98.7612 256.827C99.6466 258.964 101.246 260.729 103.286 261.819C105.326 262.91 107.682 263.259 109.951 262.808C112.22 262.357 114.262 261.132 115.73 259.344C117.198 257.556 118 255.314 118 253H110.959C110.959 253.685 110.722 254.348 110.288 254.877C109.853 255.407 109.249 255.769 108.577 255.903C107.906 256.036 107.209 255.933 106.605 255.61C106.001 255.287 105.528 254.765 105.266 254.133C105.004 253.5 104.969 252.796 105.168 252.141C105.367 251.486 105.787 250.92 106.356 250.539C106.925 250.159 107.609 249.988 108.29 250.055C108.971 250.122 109.608 250.423 110.093 250.907L115.071 245.929Z" fill="#FFB13C"/>
<circle cx="108" cy="253" r="8.5" stroke="#FFB13C" stroke-width="3"/>
<path d="M58.2442 141.594C59.5027 141.196 60.6846 141.093 61.7898 141.285C62.9065 141.473 63.867 141.943 64.6714 142.696C65.4836 143.433 66.0796 144.402 66.4596 145.604C66.8395 146.805 66.9093 147.941 66.6688 149.011C66.4362 150.067 65.9171 150.992 65.1117 151.788C64.3176 152.58 63.2913 153.176 62.0328 153.574L57.8452 154.898L54.0566 142.919L58.2442 141.594ZM61.301 151.558C62.5596 151.16 63.4236 150.51 63.8929 149.606C64.3623 148.702 64.3998 147.627 64.0054 146.38C63.6109 145.133 62.9601 144.269 62.0529 143.788C61.1421 143.296 60.0574 143.249 58.7988 143.647L57.0998 144.184L59.602 152.096L61.301 151.558ZM67.657 140.09C67.2337 140.224 66.8374 140.204 66.4681 140.032C66.1067 139.844 65.8626 139.55 65.736 139.149C65.6093 138.749 65.6417 138.374 65.8331 138.024C66.0322 137.659 66.3435 137.409 66.7668 137.275C67.1902 137.142 67.5826 137.168 67.944 137.356C68.3133 137.529 68.5612 137.815 68.6879 138.216C68.8145 138.616 68.7782 138.999 68.5791 139.364C68.3877 139.714 68.0803 139.956 67.657 140.09ZM69.1994 140.848L72.2064 150.356L69.8037 151.116L66.7967 141.608L69.1994 140.848ZM74.9054 138.874C75.6148 138.649 76.2835 138.595 76.9118 138.711C77.5363 138.816 78.0737 139.042 78.5237 139.391L78.0949 138.035L80.5148 137.27L83.5435 146.846C83.8221 147.727 83.8926 148.567 83.7551 149.365C83.6211 150.176 83.2628 150.893 82.6801 151.518C82.1009 152.154 81.308 152.631 80.3011 152.95C78.951 153.377 77.7417 153.413 76.6731 153.059C75.616 152.701 74.8584 151.997 74.4002 150.946L76.7857 150.191C77.0491 150.586 77.4265 150.845 77.918 150.966C78.4246 151.095 78.9753 151.066 79.5703 150.878C80.2682 150.657 80.7676 150.266 81.0685 149.705C81.373 149.156 81.3914 148.458 81.1236 147.611L80.6568 146.135C80.489 146.679 80.1776 147.187 79.7225 147.658C79.2788 148.126 78.708 148.47 78.0101 148.69C77.2092 148.944 76.4118 148.969 75.6179 148.767C74.8241 148.565 74.115 148.154 73.4908 147.533C72.8744 146.898 72.4124 146.093 72.1049 145.121C71.8009 144.16 71.7201 143.248 71.8625 142.385C72.0163 141.518 72.3559 140.781 72.8814 140.175C73.4184 139.564 74.093 139.131 74.9054 138.874ZM79.5984 142.789C79.4139 142.205 79.142 141.744 78.7829 141.404C78.4202 141.053 78.01 140.831 77.5522 140.736C77.0909 140.63 76.6371 140.648 76.1908 140.789C75.7446 140.93 75.3671 141.169 75.0583 141.506C74.7495 141.843 74.5419 142.261 74.4355 142.76C74.3369 143.245 74.3781 143.773 74.559 144.345C74.74 144.917 75.0136 145.384 75.3799 145.746C75.7541 146.094 76.1661 146.322 76.6161 146.432C77.0775 146.537 77.5255 146.522 77.9603 146.384C78.4065 146.243 78.7898 146.002 79.11 145.662C79.4267 145.31 79.6343 144.892 79.7328 144.408C79.8278 143.912 79.783 143.372 79.5984 142.789ZM83.3785 135.118C82.9551 135.252 82.5588 135.232 82.1896 135.06C81.8281 134.872 81.5841 134.578 81.4574 134.177C81.3308 133.777 81.3631 133.402 81.5545 133.052C81.7537 132.687 82.065 132.437 82.4883 132.303C82.9116 132.169 83.304 132.196 83.6655 132.384C84.0347 132.557 84.2827 132.843 84.4093 133.244C84.536 133.644 84.4997 134.027 84.3005 134.392C84.1091 134.742 83.8018 134.984 83.3785 135.118ZM84.9209 135.876L87.9279 145.384L85.5252 146.144L82.5182 136.636L84.9209 135.876ZM92.1769 133.43C93.3096 133.072 94.3389 133.143 95.2648 133.643C96.187 134.132 96.8508 135.017 97.2561 136.298L99.0201 141.876L96.6174 142.636L94.9565 137.384C94.7177 136.629 94.3462 136.111 93.842 135.83C93.3341 135.537 92.7541 135.494 92.102 135.7C91.4384 135.91 90.9772 136.283 90.7185 136.818C90.4675 137.337 90.4615 137.975 90.7003 138.73L92.3612 143.982L89.9585 144.742L86.9515 135.234L89.3542 134.474L89.7287 135.658C89.9188 135.145 90.2237 134.696 90.6433 134.312C91.0707 133.912 91.5819 133.618 92.1769 133.43ZM101.63 130.422C102.339 130.197 103.008 130.143 103.636 130.259C104.261 130.364 104.798 130.59 105.248 130.939L104.82 129.583L107.239 128.817L110.268 138.394C110.547 139.275 110.617 140.115 110.48 140.913C110.346 141.723 109.987 142.441 109.405 143.066C108.826 143.702 108.033 144.179 107.026 144.498C105.676 144.925 104.466 144.961 103.398 144.607C102.341 144.249 101.583 143.545 101.125 142.494L103.51 141.739C103.774 142.134 104.151 142.393 104.643 142.514C105.149 142.643 105.7 142.614 106.295 142.426C106.993 142.205 107.492 141.814 107.793 141.253C108.098 140.704 108.116 140.006 107.848 139.159L107.382 137.683C107.214 138.227 106.902 138.735 106.447 139.206C106.003 139.673 105.433 140.018 104.735 140.238C103.934 140.492 103.136 140.517 102.343 140.315C101.549 140.113 100.84 139.702 100.215 139.081C99.5991 138.445 99.1371 137.641 98.8295 136.669C98.5256 135.708 98.4448 134.796 98.5871 133.933C98.7409 133.066 99.0806 132.329 99.6061 131.722C100.143 131.112 100.818 130.678 101.63 130.422ZM106.323 134.337C106.139 133.753 105.867 133.292 105.508 132.952C105.145 132.601 104.735 132.378 104.277 132.284C103.816 132.178 103.362 132.196 102.916 132.337C102.469 132.478 102.092 132.717 101.783 133.054C101.474 133.391 101.267 133.809 101.16 134.308C101.062 134.792 101.103 135.321 101.284 135.893C101.465 136.465 101.738 136.932 102.105 137.294C102.479 137.642 102.891 137.87 103.341 137.98C103.802 138.085 104.25 138.069 104.685 137.932C105.131 137.791 105.514 137.55 105.835 137.21C106.151 136.858 106.359 136.44 106.457 135.955C106.552 135.46 106.508 134.92 106.323 134.337Z" fill="white"/>
<path d="M45.1596 145.201C43.1066 144.134 40.7472 143.813 38.4836 144.291C36.22 144.769 34.1921 146.017 32.7456 147.823C31.2991 149.628 30.5234 151.879 30.5507 154.193C30.5779 156.506 31.4065 158.739 32.8952 160.51C34.3839 162.281 36.4405 163.481 38.7148 163.905C40.9891 164.33 43.3402 163.953 45.3676 162.838C47.3949 161.723 48.9731 159.94 49.8332 157.793C50.6933 155.645 50.7821 153.265 50.0845 151.059L43.3716 153.183C43.5781 153.835 43.5518 154.54 43.2973 155.175C43.0427 155.811 42.5757 156.338 41.9757 156.668C41.3757 156.998 40.6799 157.11 40.0069 156.984C39.3338 156.858 38.7251 156.503 38.2846 155.979C37.844 155.455 37.5988 154.794 37.5907 154.11C37.5827 153.425 37.8122 152.759 38.2403 152.225C38.6684 151.69 39.2685 151.321 39.9384 151.179C40.6083 151.038 41.3066 151.133 41.9142 151.449L45.1596 145.201Z" fill="white"/>
<circle cx="40.55" cy="154.075" r="8.5" transform="rotate(-17.5504 40.55 154.075)" stroke="white" stroke-width="3"/>
</g>
<defs>
<linearGradient id="paint0_linear_16_20" x1="113.83" y1="328.399" x2="498.366" y2="518.819" gradientUnits="userSpaceOnUse">
<stop stop-color="#4FBBEF"/>
<stop offset="1" stop-color="white"/>
</linearGradient>
<clipPath id="clip0_16_20">
<rect width="567.17" height="517.31" fill="white"/>
</clipPath>
</defs>
</svg>
