<svg width="752" height="270" viewBox="0 0 752 270" fill="none" xmlns="http://www.w3.org/2000/svg">
<path d="M233.34 72.36C246.54 72.36 258.12 74.94 268.08 80.1C278.16 85.26 285.9 92.64 291.3 102.24C296.82 111.72 299.58 122.76 299.58 135.36C299.58 147.96 296.82 159 291.3 168.48C285.9 177.84 278.16 185.1 268.08 190.26C258.12 195.42 246.54 198 233.34 198H189.42V72.36H233.34ZM232.44 176.58C245.64 176.58 255.84 172.98 263.04 165.78C270.24 158.58 273.84 148.44 273.84 135.36C273.84 122.28 270.24 112.08 263.04 104.76C255.84 97.32 245.64 93.6 232.44 93.6H214.62V176.58H232.44ZM327.623 86.4C323.183 86.4 319.463 85.02 316.463 82.26C313.583 79.38 312.143 75.84 312.143 71.64C312.143 67.44 313.583 63.96 316.463 61.2C319.463 58.32 323.183 56.88 327.623 56.88C332.063 56.88 335.723 58.32 338.603 61.2C341.603 63.96 343.103 67.44 343.103 71.64C343.103 75.84 341.603 79.38 338.603 82.26C335.723 85.02 332.063 86.4 327.623 86.4ZM340.043 98.28V198H314.843V98.28H340.043ZM400.401 96.66C407.841 96.66 414.381 98.16 420.021 101.16C425.661 104.04 430.101 107.82 433.341 112.5V98.28H458.721V198.72C458.721 207.96 456.861 216.18 453.141 223.38C449.421 230.7 443.841 236.46 436.401 240.66C428.961 244.98 419.961 247.14 409.401 247.14C395.241 247.14 383.601 243.84 374.481 237.24C365.481 230.64 360.381 221.64 359.181 210.24H384.201C385.521 214.8 388.341 218.4 392.661 221.04C397.101 223.8 402.441 225.18 408.681 225.18C416.001 225.18 421.941 222.96 426.501 218.52C431.061 214.2 433.341 207.6 433.341 198.72V183.24C430.101 187.92 425.601 191.82 419.841 194.94C414.201 198.06 407.721 199.62 400.401 199.62C392.001 199.62 384.321 197.46 377.361 193.14C370.401 188.82 364.881 182.76 360.801 174.96C356.841 167.04 354.861 157.98 354.861 147.78C354.861 137.7 356.841 128.76 360.801 120.96C364.881 113.16 370.341 107.16 377.181 102.96C384.141 98.76 391.881 96.66 400.401 96.66ZM433.341 148.14C433.341 142.02 432.141 136.8 429.741 132.48C427.341 128.04 424.101 124.68 420.021 122.4C415.941 120 411.561 118.8 406.881 118.8C402.201 118.8 397.881 119.94 393.921 122.22C389.961 124.5 386.721 127.86 384.201 132.3C381.801 136.62 380.601 141.78 380.601 147.78C380.601 153.78 381.801 159.06 384.201 163.62C386.721 168.06 389.961 171.48 393.921 173.88C398.001 176.28 402.321 177.48 406.881 177.48C411.561 177.48 415.941 176.34 420.021 174.06C424.101 171.66 427.341 168.3 429.741 163.98C432.141 159.54 433.341 154.26 433.341 148.14ZM492.513 86.4C488.073 86.4 484.353 85.02 481.353 82.26C478.473 79.38 477.033 75.84 477.033 71.64C477.033 67.44 478.473 63.96 481.353 61.2C484.353 58.32 488.073 56.88 492.513 56.88C496.953 56.88 500.613 58.32 503.493 61.2C506.493 63.96 507.993 67.44 507.993 71.64C507.993 75.84 506.493 79.38 503.493 82.26C500.613 85.02 496.953 86.4 492.513 86.4ZM504.933 98.28V198H479.733V98.28H504.933ZM581.491 96.84C593.371 96.84 602.971 100.62 610.291 108.18C617.611 115.62 621.271 126.06 621.271 139.5V198H596.071V142.92C596.071 135 594.091 128.94 590.131 124.74C586.171 120.42 580.771 118.26 573.931 118.26C566.971 118.26 561.451 120.42 557.371 124.74C553.411 128.94 551.431 135 551.431 142.92V198H526.231V98.28H551.431V110.7C554.791 106.38 559.051 103.02 564.211 100.62C569.491 98.1 575.251 96.84 581.491 96.84ZM680.695 96.66C688.135 96.66 694.675 98.16 700.315 101.16C705.955 104.04 710.395 107.82 713.635 112.5V98.28H739.015V198.72C739.015 207.96 737.155 216.18 733.435 223.38C729.715 230.7 724.135 236.46 716.695 240.66C709.255 244.98 700.255 247.14 689.695 247.14C675.535 247.14 663.895 243.84 654.775 237.24C645.775 230.64 640.675 221.64 639.475 210.24H664.495C665.815 214.8 668.635 218.4 672.955 221.04C677.395 223.8 682.735 225.18 688.975 225.18C696.295 225.18 702.235 222.96 706.795 218.52C711.355 214.2 713.635 207.6 713.635 198.72V183.24C710.395 187.92 705.895 191.82 700.135 194.94C694.495 198.06 688.015 199.62 680.695 199.62C672.295 199.62 664.615 197.46 657.655 193.14C650.695 188.82 645.175 182.76 641.095 174.96C637.135 167.04 635.155 157.98 635.155 147.78C635.155 137.7 637.135 128.76 641.095 120.96C645.175 113.16 650.635 107.16 657.475 102.96C664.435 98.76 672.175 96.66 680.695 96.66ZM713.635 148.14C713.635 142.02 712.435 136.8 710.035 132.48C707.635 128.04 704.395 124.68 700.315 122.4C696.235 120 691.855 118.8 687.175 118.8C682.495 118.8 678.175 119.94 674.215 122.22C670.255 124.5 667.015 127.86 664.495 132.3C662.095 136.62 660.895 141.78 660.895 147.78C660.895 153.78 662.095 159.06 664.495 163.62C667.015 168.06 670.255 171.48 674.215 173.88C678.295 176.28 682.615 177.48 687.175 177.48C691.855 177.48 696.235 176.34 700.315 174.06C704.395 171.66 707.635 168.3 710.035 163.98C712.435 159.54 713.635 154.26 713.635 148.14Z" fill="#012F89"/>
<path d="M139.129 76.8708C125.796 63.538 108.253 55.2406 89.4884 53.3924C70.7237 51.5443 51.8988 56.2597 36.221 66.7352C20.5433 77.2108 8.98281 92.7983 3.50936 110.842C-1.96409 128.885 -1.01185 148.269 6.20382 165.689C13.4195 183.109 26.4521 197.488 43.0812 206.377C59.7102 215.265 78.9067 218.113 97.3999 214.434C115.893 210.755 132.539 200.779 144.5 186.203C156.462 171.628 163 153.355 163 134.5H105.619C105.619 140.08 103.685 145.488 100.145 149.801C96.6045 154.115 91.6784 157.067 86.2055 158.156C80.7325 159.245 75.0515 158.402 70.1302 155.771C65.2089 153.141 61.352 148.885 59.2166 143.73C57.0812 138.575 56.7993 132.838 58.4192 127.499C60.039 122.159 63.4603 117.546 68.1 114.445C72.7397 111.345 78.3108 109.95 83.8641 110.497C89.4174 111.044 94.6092 113.499 98.555 117.445L139.129 76.8708Z" fill="#FFB13C"/>
<circle cx="81.5" cy="134.5" r="71.5" stroke="#FFB13C" stroke-width="20"/>
</svg>
