<svg width="406" height="396" viewBox="0 0 406 396" fill="none" xmlns="http://www.w3.org/2000/svg">
<g filter="url(#filter0_i_9_125)">
<path d="M378.992 206.364C378.997 231.226 374.104 255.845 364.592 278.815C355.08 301.786 341.136 322.657 323.556 340.237C305.976 357.816 285.105 371.761 262.135 381.272C239.165 390.784 214.546 395.677 189.684 395.672C85.1333 395.672 0.375929 310.915 0.375929 206.364C0.357882 186.028 3.61794 165.821 10.0307 146.522C22.6208 108.831 46.7408 76.0515 78.9799 52.8186C111.219 29.5858 149.946 17.0754 189.684 17.0565C223.956 17.0446 257.587 26.3396 286.989 43.9493C316.39 61.559 340.458 86.8224 356.622 117.043C360.63 124.499 364.126 132.218 367.087 140.149C367.497 141.253 367.896 142.357 368.285 143.472V143.483C370.021 148.383 371.549 153.376 372.871 158.459C376.948 174.101 379.005 190.2 378.992 206.364Z" fill="#5EA3F4"/>
</g>
<g filter="url(#filter1_d_9_125)">
<path d="M168.972 78.6406C160.465 74.0401 151.019 71.443 141.355 71.0477C131.692 70.6523 122.065 72.469 113.211 76.3593C105.414 79.7523 97.2048 85.839 94.6039 96.8304C105.123 90.6225 118.74 100.431 121.446 116.166L120.815 116.34C119.385 127.239 122.576 139.104 128.755 145.862C129.566 138.843 134.182 134.065 138.722 131.081C143.262 128.097 148.284 125.929 151.749 120.799C155.857 114.718 156.9 105.83 158.532 97.7222C160.164 89.6143 163.26 80.8999 168.972 78.6406Z" fill="white"/>
</g>
<g filter="url(#filter2_d_9_125)">
<path d="M110.09 171.384C107.177 175.759 103.286 178.505 99.7943 181.923C96.3132 185.351 93.0001 189.979 92.3061 195.921C91.8643 199.728 92.548 203.598 92.4532 207.448C92.3587 211.297 91.0756 215.63 88.4568 216.587C84.3235 218.08 81.1684 210.403 76.9196 209.867C73.5435 209.446 70.5042 214.757 71.4822 219.364C72.4603 223.97 77.0563 226.01 79.6961 223.002C82.0835 227.009 80.4007 234.277 76.8144 235.507C76.4357 238.031 76.0572 240.545 75.689 243.069C66.6233 236.727 57.4629 230.28 49.7539 220.994C41.1801 210.753 35.8623 198.184 34.483 184.899C33.484 174.224 34.9668 162.014 30.0659 153.8C26.1429 147.227 19.4119 145.775 13.3541 146.186C12.2499 146.259 11.1351 146.385 10.0308 146.522C13.6033 135.792 18.1407 125.408 23.5872 115.497C24.8198 114.968 25.9651 114.255 26.9842 113.383C32.6215 108.597 35.1246 98.9111 39.6995 92.2117C39.994 91.7804 40.299 91.3598 40.6145 90.9497C45.2947 84.8392 51.5628 81.6945 57.6207 78.7707C71.03 72.2607 84.8283 65.6665 98.9845 66.5709L94.9565 66.9601C90.2553 80.1275 85.5507 93.2949 80.8425 106.462C80.1272 108.482 79.4051 110.504 78.676 112.531C76.0046 120.019 73.2491 127.991 73.6593 136.373C73.9012 141.337 75.6259 146.638 78.9073 148.341C81.9677 149.919 85.3122 147.984 88.2674 146.07C89.519 145.27 90.7601 144.471 92.0116 143.661C96.5024 140.769 101.477 137.803 106.22 139.738C110.564 141.505 113.771 147.405 114.382 153.768C114.941 159.954 113.432 166.149 110.09 171.384Z" fill="white"/>
</g>
<g filter="url(#filter3_d_9_125)">
<path d="M136.8 261.282C123.684 253.206 110.568 245.131 97.4519 237.055L97.6746 236.482C89.5197 239.588 86.1341 254.083 87.4818 265.938C88.8294 277.792 93.3992 288.389 95.7078 299.94C98.8206 315.746 97.6457 332.098 92.3051 347.297C109.552 327.946 124.815 306.914 137.865 284.517C139.688 281.694 141.078 278.614 141.987 275.379C142.82 271.937 142.692 267.799 141.023 265.039C139.949 263.455 138.498 262.164 136.8 261.282Z" fill="white"/>
</g>
<path d="M85.0356 114.363C83.6429 117.494 83.1071 121.67 84.3709 124.91C85.6617 128.219 88.3904 129.714 90.9026 130.959L98.1497 134.551C100.561 135.746 103.159 136.953 105.617 135.97C108.582 134.784 110.637 130.137 110.105 125.822C109.539 121.231 106.645 118.073 103.969 115.384C100.223 111.62 96.4778 107.857 92.7323 104.093L90.6214 106.678C88.3382 108.905 86.4495 111.504 85.0356 114.363Z" fill="white"/>
<g filter="url(#filter4_d_9_125)">
<path d="M340.142 163.444C343.402 164.212 346.662 164.979 349.923 165.747C349.355 176.759 343.896 186.95 336.577 190.641C333.527 192.177 330.13 192.745 327.605 195.616C325.323 198.224 324.166 202.284 323.104 206.164C321.242 212.938 319.381 219.711 317.519 226.483C315.521 233.782 312.955 241.891 307.76 244.52C303.3 246.782 298.2 244.016 294.771 239.377C291.342 234.739 289.249 228.503 287.22 222.424C287.346 229.05 284.264 235.549 279.9 237.853C275.525 240.156 270.203 238.073 267.279 232.931C265.176 229.239 264.303 224.37 262.241 220.626C260.18 216.882 255.858 214.736 253.607 218.249C252.124 220.584 252.313 224.159 251.577 227.125C250.431 231.732 246.96 234.624 243.521 234.876C240.093 235.129 236.748 233.151 233.877 230.47C227.956 224.916 223.591 216.103 221.898 206.312C221.151 201.947 220.941 197.193 222.235 193.102C223.528 189.011 226.652 185.856 229.754 186.634C231.795 182.322 227.767 176.601 224.138 177.106C220.499 177.611 217.649 181.512 214.662 184.51C211.686 187.507 207.521 189.684 204.524 186.708C204.545 189.474 202.294 191.304 200.348 191.072C198.413 190.852 196.688 189.295 194.911 188.191C188.043 183.91 179.325 186.75 174.445 194.848C177.495 181.87 181.964 166.978 191.335 163.928C195.163 162.676 199.339 163.707 202.957 161.54C209.362 157.702 210.655 143.199 205.123 137.214C205.828 142.872 205.691 149.477 202.704 153.348C199.717 157.218 193.449 154.694 193.828 148.972C192.965 152.916 188.674 153.516 186.697 150.487C184.709 147.458 184.878 142.504 186.287 138.886C187.696 135.269 190.094 132.671 192.418 130.178C197.414 124.825 202.483 119.409 208.268 116.043C214.063 112.678 220.752 111.542 226.557 114.886C229.618 116.653 232.31 119.598 235.433 121.155C238.557 122.722 242.522 122.522 244.594 118.862C246.918 114.781 245.824 108.723 246.687 103.623C248.233 94.6095 257.246 90.3921 262.241 96.3447C258.508 95.3877 254.648 99.8048 254.185 105.158C253.712 110.511 256.415 115.917 260.033 117.537C266.112 120.229 272.064 113.456 276.661 107.188C281.456 100.625 286.259 94.0661 291.069 87.5104C291.837 86.3942 292.699 85.3457 293.646 84.3763C295.152 82.908 297.16 82.0672 299.263 82.0242C301.367 81.9813 303.407 82.7394 304.973 84.145C309.831 88.1098 312.114 96.2397 316.1 101.835C321.884 109.964 330.54 111.942 338.596 113.519C344.601 114.687 350.61 115.861 356.622 117.042C360.63 124.498 364.126 132.218 367.087 140.149C356.906 144.471 347.514 152.559 340.142 163.444Z" fill="white"/>
</g>
<g filter="url(#filter5_d_9_125)">
<path d="M359.556 289.986C355.051 299.135 349.81 307.904 343.886 316.205C340.1 314.585 336.03 317.478 332.485 320.191C328.783 323.031 324.335 325.797 320.538 323.21C316.657 320.559 315.406 313.145 316.636 307.266C317.867 301.397 320.937 296.727 323.914 292.289C327.069 287.578 330.445 282.687 334.831 280.857C339.227 279.027 344.874 281.614 346.158 287.861L349.271 287.756C347.525 285.358 348.44 280.394 350.785 279.521C353.488 278.501 355.833 282.214 357.432 285.495C358.147 286.978 358.873 288.471 359.556 289.986Z" fill="white"/>
</g>
<g filter="url(#filter6_d_9_125)">
<path d="M240.328 245.563C233.637 245.983 228.337 237.746 224.815 229.642C221.293 221.539 218.079 212.271 212.041 208.147C208.592 205.79 204.659 205.466 200.917 204.324C197.175 203.182 193.258 200.819 191.469 196.006L187.225 194.291C181.619 197.443 175.939 200.653 171.109 205.782C165.691 211.537 162.317 218.914 161.506 226.776C160.695 235.272 163.69 244.745 169.284 247.937C173.705 250.459 178.852 248.869 183.329 251.178C188.924 254.062 192.245 262.442 193.503 270.715C194.76 278.988 194.441 287.586 195.341 295.953C196.24 304.32 198.72 313.027 203.85 317.314C210.271 322.68 219.691 318.221 222.572 308.454C223.985 303.663 223.936 298.257 224.993 293.283C226.854 284.525 231.876 278.027 235.859 270.842C239.842 263.658 242.978 253.9 240.328 245.563Z" fill="white"/>
</g>
<path d="M174.208 159.499C174.832 160.074 175.414 160.692 175.95 161.349C176.505 162.306 176.789 163.396 176.77 164.502C176.751 165.608 176.431 166.688 175.843 167.625C176.649 167.579 177.437 167.367 178.157 167.001C178.877 166.635 179.513 166.124 180.025 165.5C181.246 164.109 182.32 162.596 183.231 160.984C183.913 159.871 184.639 158.367 184.176 157.045C183.86 156.143 183.112 155.758 182.588 155.079C181.758 154.004 181.552 152.296 181.122 150.82C180.193 147.632 177.969 145.288 175.555 144.953L175.89 145.017C174.881 145.363 174.177 146.964 174.4 148.405C174.603 149.718 175.447 150.807 175.363 152.146C175.242 154.071 173.318 154.974 173.2 156.899C173.181 157.865 173.543 158.799 174.208 159.499Z" fill="white"/>
<path d="M162.744 126.791C162.753 126.788 162.763 126.788 162.773 126.785C162.979 126.598 163.17 126.394 163.344 126.177L162.744 126.791Z" fill="#E6E6E6"/>
<path d="M164.75 135.826C166.23 134.874 167.056 132.243 166.567 130.041C166.081 127.852 164.36 126.381 162.773 126.785C162.313 127.252 161.742 127.594 161.113 127.779C160.484 127.964 159.818 127.986 159.178 127.844C158.197 127.591 157.12 126.941 156.269 127.68C155.783 128.232 155.442 128.897 155.278 129.615C154.964 130.581 154.649 131.548 154.334 132.515C154.184 132.861 154.145 133.245 154.222 133.614C154.282 133.762 154.38 133.892 154.505 133.991C154.63 134.091 154.778 134.156 154.936 134.182C156.826 134.739 158.715 135.296 160.605 135.853C161.982 136.259 163.469 136.65 164.75 135.826Z" fill="white"/>
<path d="M307.406 260.558C306.533 259.127 305.659 257.697 304.786 256.267C303.928 254.611 302.755 253.138 301.333 251.931C301.02 251.669 300.658 251.473 300.268 251.353C299.878 251.233 299.469 251.192 299.063 251.232C298.657 251.273 298.263 251.394 297.905 251.589C297.547 251.784 297.231 252.049 296.977 252.368L297.083 253.185C299.074 255.683 301.18 258.458 301.685 262.165C301.885 263.626 301.815 265.139 301.99 266.607C302.165 268.075 302.661 269.597 303.608 270.23C304.984 271.149 306.599 269.794 307.578 268.141C308.453 266.783 308.846 265.17 308.692 263.562C308.474 262.483 308.036 261.46 307.406 260.558Z" fill="white"/>
<path d="M346.282 205.94C346.534 204.283 346.787 202.627 347.04 200.97C347.45 199.151 347.501 197.268 347.19 195.429C347.119 195.028 346.969 194.644 346.748 194.301C346.527 193.958 346.24 193.663 345.903 193.433C345.567 193.203 345.187 193.042 344.788 192.96C344.388 192.879 343.976 192.878 343.576 192.958L343.132 193.651C343.046 196.845 342.871 200.324 340.87 203.486C340.081 204.732 339.054 205.845 338.242 207.08C337.431 208.316 336.83 209.8 337.147 210.894C337.608 212.483 339.716 212.486 341.529 211.852C343.073 211.377 344.412 210.396 345.331 209.067C345.859 208.101 346.182 207.036 346.282 205.94Z" fill="#E6E6E6"/>
<path d="M321.109 262.419C321.536 261.191 320.92 259.783 320.789 258.426C320.727 256.673 321.191 254.942 322.123 253.457C323.049 252.055 323.75 250.518 324.201 248.9C324.392 248.163 324.357 247.386 324.102 246.669C323.813 246.019 323.112 245.723 322.711 246.238L323.57 246.791C322.409 246.584 321.217 246.642 320.082 246.96C319.434 247.208 318.855 247.608 318.395 248.127C317.935 248.646 317.606 249.268 317.437 249.941C317.296 250.989 317.064 252.024 316.744 253.033C316.231 254.087 315.239 254.438 314.615 255.363C314.19 256.183 313.975 257.096 313.99 258.02C314.005 258.944 314.25 259.849 314.703 260.655C315.486 261.972 316.731 262.952 318.197 263.402C319.246 263.779 320.629 263.799 321.109 262.419Z" fill="white"/>
<path d="M345.511 269.781C345.89 270.769 346.399 271.702 347.023 272.556C348.191 273.733 349.779 273.01 351.196 272.724C352.482 272.521 353.799 272.669 355.008 273.154C356.216 273.639 357.271 274.441 358.06 275.477C357.511 272.736 356.311 270.167 354.563 267.985C352.814 265.804 350.568 264.074 348.012 262.94C344.671 261.578 341.152 261.447 337.678 261.324L337.078 261.478C338.607 265.93 343.409 265.83 345.511 269.781Z" fill="white"/>
<path d="M242.159 278.886L242.168 278.905C242.226 278.793 242.284 278.681 242.342 278.569L242.159 278.886Z" fill="#E6E6E6"/>
<path d="M238.457 286.052C237.65 287.517 236.955 289.042 236.38 290.614C235.619 293.159 235.114 295.774 234.875 298.42C234.687 299.925 234.629 301.846 235.571 302.579C235.842 302.759 236.169 302.834 236.491 302.79C236.813 302.746 237.108 302.587 237.321 302.342C237.844 301.788 238.273 301.151 238.588 300.457C240.441 297.266 241.879 293.852 242.869 290.298C243.771 286.554 243.762 282.147 242.168 278.905C240.931 281.288 239.694 283.67 238.457 286.052Z" fill="white"/>
<path d="M202.744 95.1493C203.332 95.7241 204.076 96.1142 204.883 96.2718C205.69 96.4293 206.525 96.3472 207.287 96.0358C208.862 95.3468 210.308 94.3918 211.56 93.2128C212.597 92.4456 213.477 91.4861 214.151 90.3865C214.522 89.7295 214.761 89.0055 214.851 88.2562C214.942 87.5069 214.884 86.747 214.681 86.0201C214.096 84.3084 212.611 83.7346 211.3 83.3461C209.203 82.7241 207.106 82.1021 205.008 81.4802L206.525 80.1126C204.964 79.2748 203.237 80.8297 202.262 82.7547C201.636 84.0116 201.2 85.3543 200.967 86.739C200.445 89.7605 200.956 93.3585 202.744 95.1493Z" fill="#E6E6E6"/>
<path d="M239.775 82.7178C240.366 83.3696 241.183 83.7719 242.06 83.8433C242.937 83.9146 243.808 83.6496 244.497 83.102C245.09 82.6568 245.582 82.0916 245.942 81.4435C246.302 80.7953 246.521 80.0785 246.586 79.3399C246.734 77.6901 245.919 75.8563 244.754 75.7139L245.02 74.1692C242.776 73.7639 240.014 73.6827 238.811 76.4082C238.406 77.4523 238.281 78.5845 238.45 79.6917C238.619 80.799 239.076 81.8425 239.775 82.7178Z" fill="#E6E6E6"/>
<path d="M234.828 0.574022C221.671 -0.910174 208.462 2.8933 198.109 11.1477C187.755 19.4021 181.105 31.4313 179.621 44.5889C176.53 71.9884 190.965 131.487 217.283 156.117C229.675 108.928 273.098 80.9382 278.843 55.7813C284.983 28.9003 262.228 3.6647 234.828 0.574022Z" fill="#F25641"/>
<path d="M225.728 61.4858C234.721 61.4858 242.01 54.196 242.01 45.2034C242.01 36.2109 234.721 28.921 225.728 28.921C216.736 28.921 209.446 36.2109 209.446 45.2034C209.446 54.196 216.736 61.4858 225.728 61.4858Z" fill="white"/>
<path d="M208.608 179.594C214.498 179.594 219.272 174.819 219.272 168.929C219.272 163.039 214.498 158.265 208.608 158.265C202.718 158.265 197.943 163.039 197.943 168.929C197.943 174.819 202.718 179.594 208.608 179.594Z" fill="#F25641"/>
<path opacity="0.2" d="M239.2 33.5379C241.033 34.6392 242.631 36.0907 243.903 37.8095C245.175 39.5284 246.095 41.4809 246.613 43.5556C247.13 45.6303 247.233 47.7865 246.917 49.9012C246.601 52.0159 245.872 54.0477 244.77 55.8804C243.669 57.7132 242.217 59.3111 240.499 60.5829C238.78 61.8547 236.827 62.7755 234.753 63.2928C230.563 64.3374 226.129 63.6747 222.428 61.4505C226.202 62.29 230.151 61.7591 233.57 59.9527C236.988 58.1462 239.652 55.1823 241.084 51.5913C242.517 48.0003 242.624 44.0166 241.388 40.3534C240.152 36.6902 237.652 33.5865 234.337 31.5978C236.052 31.9779 237.694 32.6331 239.2 33.5379Z" fill="#231F20"/>
<path opacity="0.2" d="M278.907 55.8339C273.161 80.9908 229.738 108.981 217.347 156.17C214.871 153.831 212.573 151.313 210.469 148.635C224.394 104.279 265.114 77.3261 270.665 53.02C275.634 31.2656 261.677 10.591 241.651 1.85746C265.893 7.95143 284.533 31.2 278.907 55.8339Z" fill="#231F20"/>
<path d="M82.2454 64.1056C72.3644 62.991 62.4454 65.8473 54.6704 72.046C46.8954 78.2448 41.9012 87.2783 40.7866 97.1592C38.4656 117.735 49.3057 162.417 69.0694 180.913C78.3752 145.476 110.984 124.456 115.299 105.564C119.91 85.3776 102.821 66.4266 82.2454 64.1056Z" fill="#F25641"/>
<path d="M75.4116 109.848C82.1646 109.848 87.6391 104.374 87.6391 97.6207C87.6391 90.8676 82.1646 85.3932 75.4116 85.3932C68.6585 85.3932 63.184 90.8676 63.184 97.6207C63.184 104.374 68.6585 109.848 75.4116 109.848Z" fill="white"/>
<path d="M62.5549 198.543C66.978 198.543 70.5636 194.958 70.5636 190.535C70.5636 186.112 66.978 182.526 62.5549 182.526C58.1317 182.526 54.5461 186.112 54.5461 190.535C54.5461 194.958 58.1317 198.543 62.5549 198.543Z" fill="#F25641"/>
<path opacity="0.2" d="M85.5287 88.8603C86.905 89.6873 88.105 90.7774 89.0601 92.0682C90.0151 93.3589 90.7066 94.8252 91.0951 96.3833C91.4835 97.9413 91.5612 99.5605 91.3239 101.149C91.0865 102.737 90.5386 104.262 89.7116 105.639C88.8845 107.015 87.7945 108.215 86.5037 109.17C85.2129 110.125 83.7467 110.817 82.1887 111.205C80.6306 111.594 79.0113 111.671 77.4233 111.434C75.8352 111.197 74.3094 110.649 72.9331 109.822C75.7672 110.452 78.7332 110.053 81.3001 108.697C83.8671 107.34 85.8675 105.114 86.9433 102.418C88.0191 99.721 88.1001 96.7295 87.1717 93.9785C86.2434 91.2276 84.3663 88.8968 81.8765 87.4033C83.1645 87.6888 84.3979 88.1808 85.5287 88.8603Z" fill="#231F20"/>
<path opacity="0.2" d="M115.347 105.604C111.032 124.496 78.4231 145.515 69.1174 180.953C67.2586 179.196 65.5324 177.305 63.9526 175.294C74.4096 141.984 104.989 121.744 109.158 103.491C112.889 87.1539 102.408 71.628 87.369 65.0694C105.574 69.6457 119.572 87.1046 115.347 105.604Z" fill="#231F20"/>
<path d="M386.722 56.7598C383.197 55.3605 379.431 54.6693 375.639 54.7255C371.846 54.7817 368.102 55.5843 364.62 57.0875C361.138 58.5906 357.986 60.7649 355.345 63.4862C352.703 66.2075 350.623 69.4224 349.224 72.9475C343.339 87.7725 342.364 123.176 353.315 140.919C367.396 116.46 395.883 107.428 402.91 94.2582C410.418 80.1854 401.547 62.6446 386.722 56.7598Z" fill="#F25641"/>
<path d="M374.867 89.709C380.069 89.709 384.286 85.492 384.286 80.2901C384.286 75.0882 380.069 70.8712 374.867 70.8712C369.665 70.8712 365.448 75.0882 365.448 80.2901C365.448 85.492 369.665 89.709 374.867 89.709Z" fill="white"/>
<path d="M346.528 152.923C349.935 152.923 352.697 150.161 352.697 146.754C352.697 143.347 349.935 140.585 346.528 140.585C343.12 140.585 340.358 143.347 340.358 146.754C340.358 150.161 343.12 152.923 346.528 152.923Z" fill="#F25641"/>
<path opacity="0.2" d="M384.158 75.8237C385.884 77.6277 386.823 80.043 386.768 82.5387C386.714 85.0345 385.671 87.4067 383.869 89.134C382.067 90.8613 379.652 91.8025 377.157 91.7508C374.661 91.699 372.288 90.6586 370.558 88.8581C372.538 89.8996 374.823 90.2028 377.005 89.7134C379.187 89.224 381.124 87.9739 382.469 86.1869C383.814 84.4 384.479 82.1927 384.345 79.9603C384.211 77.7278 383.287 75.6159 381.738 74.0025C382.638 74.475 383.455 75.0901 384.158 75.8237Z" fill="#231F20"/>
<path opacity="0.2" d="M402.937 94.2972C395.911 107.467 367.423 116.499 353.343 140.958C352.316 139.277 351.415 137.522 350.647 135.708C365.154 113.063 391.975 104.2 398.764 91.4754C404.84 80.0865 400.188 66.4273 390.336 58.5119C402.942 65.5938 409.818 81.4009 402.937 94.2972Z" fill="#231F20"/>
<defs>
<filter id="filter0_i_9_125" x="0.375854" y="17.0565" width="390.616" height="385.616" filterUnits="userSpaceOnUse" color-interpolation-filters="sRGB">
<feFlood flood-opacity="0" result="BackgroundImageFix"/>
<feBlend mode="normal" in="SourceGraphic" in2="BackgroundImageFix" result="shape"/>
<feColorMatrix in="SourceAlpha" type="matrix" values="0 0 0 0 0 0 0 0 0 0 0 0 0 0 0 0 0 0 127 0" result="hardAlpha"/>
<feOffset dx="12" dy="7"/>
<feGaussianBlur stdDeviation="18.85"/>
<feComposite in2="hardAlpha" operator="arithmetic" k2="-1" k3="1"/>
<feColorMatrix type="matrix" values="0 0 0 0 1 0 0 0 0 1 0 0 0 0 1 0 0 0 1 0"/>
<feBlend mode="normal" in2="shape" result="effect1_innerShadow_9_125"/>
</filter>
<filter id="filter1_d_9_125" x="90.6039" y="70.9946" width="82.3682" height="82.8679" filterUnits="userSpaceOnUse" color-interpolation-filters="sRGB">
<feFlood flood-opacity="0" result="BackgroundImageFix"/>
<feColorMatrix in="SourceAlpha" type="matrix" values="0 0 0 0 0 0 0 0 0 0 0 0 0 0 0 0 0 0 127 0" result="hardAlpha"/>
<feOffset dy="4"/>
<feGaussianBlur stdDeviation="2"/>
<feComposite in2="hardAlpha" operator="out"/>
<feColorMatrix type="matrix" values="0 0 0 0 0 0 0 0 0 0 0 0 0 0 0 0 0 0 0.25 0"/>
<feBlend mode="normal" in2="BackgroundImageFix" result="effect1_dropShadow_9_125"/>
<feBlend mode="normal" in="SourceGraphic" in2="effect1_dropShadow_9_125" result="shape"/>
</filter>
<filter id="filter2_d_9_125" x="6.03076" y="66.4874" width="112.465" height="184.582" filterUnits="userSpaceOnUse" color-interpolation-filters="sRGB">
<feFlood flood-opacity="0" result="BackgroundImageFix"/>
<feColorMatrix in="SourceAlpha" type="matrix" values="0 0 0 0 0 0 0 0 0 0 0 0 0 0 0 0 0 0 127 0" result="hardAlpha"/>
<feOffset dy="4"/>
<feGaussianBlur stdDeviation="2"/>
<feComposite in2="hardAlpha" operator="out"/>
<feColorMatrix type="matrix" values="0 0 0 0 0 0 0 0 0 0 0 0 0 0 0 0 0 0 0.25 0"/>
<feBlend mode="normal" in2="BackgroundImageFix" result="effect1_dropShadow_9_125"/>
<feBlend mode="normal" in="SourceGraphic" in2="effect1_dropShadow_9_125" result="shape"/>
</filter>
<filter id="filter3_d_9_125" x="83.1941" y="236.482" width="63.2943" height="118.816" filterUnits="userSpaceOnUse" color-interpolation-filters="sRGB">
<feFlood flood-opacity="0" result="BackgroundImageFix"/>
<feColorMatrix in="SourceAlpha" type="matrix" values="0 0 0 0 0 0 0 0 0 0 0 0 0 0 0 0 0 0 127 0" result="hardAlpha"/>
<feOffset dy="4"/>
<feGaussianBlur stdDeviation="2"/>
<feComposite in2="hardAlpha" operator="out"/>
<feColorMatrix type="matrix" values="0 0 0 0 0 0 0 0 0 0 0 0 0 0 0 0 0 0 0.25 0"/>
<feBlend mode="normal" in2="BackgroundImageFix" result="effect1_dropShadow_9_125"/>
<feBlend mode="normal" in="SourceGraphic" in2="effect1_dropShadow_9_125" result="shape"/>
</filter>
<filter id="filter4_d_9_125" x="170.445" y="82.0225" width="200.642" height="171.301" filterUnits="userSpaceOnUse" color-interpolation-filters="sRGB">
<feFlood flood-opacity="0" result="BackgroundImageFix"/>
<feColorMatrix in="SourceAlpha" type="matrix" values="0 0 0 0 0 0 0 0 0 0 0 0 0 0 0 0 0 0 127 0" result="hardAlpha"/>
<feOffset dy="4"/>
<feGaussianBlur stdDeviation="2"/>
<feComposite in2="hardAlpha" operator="out"/>
<feColorMatrix type="matrix" values="0 0 0 0 0 0 0 0 0 0 0 0 0 0 0 0 0 0 0.25 0"/>
<feBlend mode="normal" in2="BackgroundImageFix" result="effect1_dropShadow_9_125"/>
<feBlend mode="normal" in="SourceGraphic" in2="effect1_dropShadow_9_125" result="shape"/>
</filter>
<filter id="filter5_d_9_125" x="312.181" y="279.349" width="51.3756" height="52.8902" filterUnits="userSpaceOnUse" color-interpolation-filters="sRGB">
<feFlood flood-opacity="0" result="BackgroundImageFix"/>
<feColorMatrix in="SourceAlpha" type="matrix" values="0 0 0 0 0 0 0 0 0 0 0 0 0 0 0 0 0 0 127 0" result="hardAlpha"/>
<feOffset dy="4"/>
<feGaussianBlur stdDeviation="2"/>
<feComposite in2="hardAlpha" operator="out"/>
<feColorMatrix type="matrix" values="0 0 0 0 0 0 0 0 0 0 0 0 0 0 0 0 0 0 0.25 0"/>
<feBlend mode="normal" in2="BackgroundImageFix" result="effect1_dropShadow_9_125"/>
<feBlend mode="normal" in="SourceGraphic" in2="effect1_dropShadow_9_125" result="shape"/>
</filter>
<filter id="filter6_d_9_125" x="157.375" y="194.291" width="87.9333" height="133.323" filterUnits="userSpaceOnUse" color-interpolation-filters="sRGB">
<feFlood flood-opacity="0" result="BackgroundImageFix"/>
<feColorMatrix in="SourceAlpha" type="matrix" values="0 0 0 0 0 0 0 0 0 0 0 0 0 0 0 0 0 0 127 0" result="hardAlpha"/>
<feOffset dy="4"/>
<feGaussianBlur stdDeviation="2"/>
<feComposite in2="hardAlpha" operator="out"/>
<feColorMatrix type="matrix" values="0 0 0 0 0 0 0 0 0 0 0 0 0 0 0 0 0 0 0.25 0"/>
<feBlend mode="normal" in2="BackgroundImageFix" result="effect1_dropShadow_9_125"/>
<feBlend mode="normal" in="SourceGraphic" in2="effect1_dropShadow_9_125" result="shape"/>
</filter>
</defs>
</svg>
